<?xml version="1.0" encoding="UTF-8"?>
<svg version="1.1" xmlns="http://www.w3.org/2000/svg" width="263" height="287">
<path d="M0 0 C1.68443198 1.64870993 3.34949533 3.31732657 5 5 C16.08141467 14.10889079 27.95600282 22.3185891 39.6640625 30.59375 C46.67269965 35.55205164 53.53372016 40.66728206 60.33666992 45.90454102 C67.9981547 51.79225625 75.78273955 57.50812924 83.57519531 63.22070312 C86.01866956 65.01369953 88.45910718 66.81074563 90.8984375 68.609375 C92.105 69.49894897 92.105 69.49894897 93.3359375 70.40649414 C94.93283777 71.58462799 96.52920088 72.76349029 98.125 73.94311523 C101.84896374 76.6928857 105.58270603 79.42528818 109.3515625 82.11328125 C110.03250977 82.60223877 110.71345703 83.09119629 111.41503906 83.5949707 C112.67007898 84.49466611 113.92947916 85.38832887 115.19433594 86.27416992 C119.02385779 89.0289019 122.57186258 91.91317269 125 96 C125.47613655 98.97027699 125.66711825 101.355245 125.61523438 104.31274414 C125.62078339 105.12488876 125.6263324 105.93703339 125.63204956 106.77378845 C125.6438122 109.44485412 125.61960836 112.11421056 125.59375 114.78515625 C125.59203807 116.64790266 125.59210542 118.51065147 125.59387207 120.37339783 C125.59222081 124.27138413 125.57355698 128.16879394 125.54199219 132.06665039 C125.50228764 137.05914086 125.49795136 142.0508777 125.50545502 147.04349613 C125.50852644 150.88771958 125.49639849 154.73177407 125.47932434 158.57595634 C125.47230162 160.41672137 125.46916892 162.25750554 125.47001648 164.09828377 C125.46821583 166.67142391 125.44681256 169.24366587 125.41992188 171.81665039 C125.42285248 172.57470978 125.42578308 173.33276917 125.42880249 174.11380005 C125.35672017 178.59118649 124.72043766 181.42017948 122 185 C116.16672302 190.56049784 109.40329284 195.2606293 102.9375 200.0625 C102.28233398 200.55186035 101.62716797 201.0412207 100.95214844 201.54541016 C96.23808559 205 96.23808559 205 94 205 C94 205.66 94 206.32 94 207 C91.9453125 208.46069336 91.9453125 208.46069336 89.125 210.15234375 C83.47597428 213.64776871 78.23933192 217.48690285 73 221.5625 C71.16107328 222.97775485 69.32120992 224.39179341 67.48046875 225.8046875 C66.56442871 226.50819336 65.64838867 227.21169922 64.70458984 227.93652344 C50.46021604 238.80431973 35.87722765 249.2485637 21.2890625 259.6484375 C20.70850098 260.0623877 20.12793945 260.47633789 19.52978516 260.90283203 C18.39528306 261.7102414 17.25956095 262.51593957 16.12255859 263.31982422 C13.09888076 265.46557531 10.12435281 267.65842177 7.1875 269.921875 C-2.8407289 277.60648182 -11.83059143 283.41416468 -25 282 C-35.86899549 280.27476262 -44.58970051 273.86933877 -53.1171875 267.234375 C-54.96314172 265.80363542 -56.84169499 264.41343635 -58.7578125 263.078125 C-64.83305068 258.77403776 -64.83305068 258.77403776 -65.6875 254.8125 C-64.58593484 250.30609708 -63.22451579 247.82884369 -59.40234375 245.16015625 C-58.68240234 244.65419922 -57.96246094 244.14824219 -57.22070312 243.62695312 C-56.09051758 242.85254883 -56.09051758 242.85254883 -54.9375 242.0625 C-54.21111328 241.55009766 -53.48472656 241.03769531 -52.73632812 240.50976562 C-48.28794864 237.41438574 -43.74078684 234.71186032 -38.98022461 232.12817383 C-36.54444401 230.74046058 -34.4444912 229.12922448 -32.3125 227.3125 C-27.61530844 223.42771579 -22.73160297 219.89542263 -17.73364258 216.41333008 C-15.41729651 214.78747419 -13.21540097 213.21634365 -11.21484375 211.20703125 C-10 210 -10 210 -8 210 C-8 209.34 -8 208.68 -8 208 C-3.54039604 204.54153163 1.09282728 201.76586099 6 199 C7.5159375 197.88625 7.5159375 197.88625 9.0625 196.75 C12.3966642 194.76368941 14.18725511 194.56673353 18 195 C18.66 195.33 19.32 195.66 20 196 C20 196.66 20 197.32 20 198 C20.66 198 21.32 198 22 198 C23.64628913 201.29257827 23.53827018 203.3517243 23 207 C20.19989709 210.31223574 16.92137959 213.09516426 12.984375 214.94921875 C10.87363637 215.94114889 10.87363637 215.94114889 9.1328125 217.87890625 C6.59762369 220.40016545 3.91983858 222.06236891 0.875 223.9375 C-13.32705263 232.85475769 -28.47674644 242.70852953 -40 255 C-31.19285651 262.54085443 -31.19285651 262.54085443 -20.1484375 264.3515625 C-16.77375884 263.79934236 -13.95771066 262.64317259 -11 261 C-10.25105469 260.58621094 -9.50210938 260.17242187 -8.73046875 259.74609375 C-3.17154162 256.5332965 2.02198442 252.91682325 7.17578125 249.09375 C11.03925951 246.22953929 14.96333715 243.45099823 18.8828125 240.6640625 C21.09229081 239.17113417 21.09229081 239.17113417 22 237 C22.99 236.67 23.98 236.34 25 236 C25.53625 235.443125 26.0725 234.88625 26.625 234.3125 C29.93471402 231.08988372 35.18134445 226 40 226 C40 225.34 40 224.68 40 224 C41.74895933 222.88811864 43.5526122 221.86193546 45.375 220.875 C50.49388434 217.97649926 54.96768999 214.8025438 59.484375 211.05078125 C63.02913194 208.16103375 66.73772273 205.51837844 70.45703125 202.859375 C72.24673588 201.55077376 73.99135409 200.17937115 75.69921875 198.765625 C78 197 78 197 80 197 C80.33 196.01 80.66 195.02 81 194 C83.5625 192.8125 83.5625 192.8125 86 192 C86 191.34 86 190.68 86 190 C88.01171875 188.4140625 88.01171875 188.4140625 90.6875 186.625 C93.44450866 184.75472587 96.10244451 182.91661493 98.6875 180.8125 C100.68271274 179.24868461 102.53137601 178.12973027 104.75 176.9375 C108.25328616 175.32837422 108.25328616 175.32837422 109 172 C109.13455269 169.85057465 109.21075914 167.69733958 109.25634766 165.54418945 C109.27095032 164.89335892 109.28555298 164.24252838 109.30059814 163.57197571 C109.42656058 157.57203289 109.49536357 151.57079444 109.54844093 145.5698061 C109.58418116 141.54270302 109.63743984 137.51760136 109.73388672 133.49145508 C109.82702795 129.59092307 109.87540936 125.69215988 109.89283371 121.79057884 C109.90687318 120.30930912 109.93639045 118.82809718 109.98213577 117.34746742 C110.36581137 108.89106592 110.36581137 108.89106592 107.05923462 101.35261536 C104.80036486 99.3158665 102.55798097 97.63790221 100 96 C98.81147335 95.12077242 97.62572046 94.23775388 96.4453125 93.34765625 C95.34159247 92.58152361 94.2347948 91.81980616 93.125 91.0625 C88.88277184 88.10082674 84.78120294 85.07679765 80.8125 81.75 C69.3783848 72.22996576 57.09807189 63.72833708 44.92553711 55.18823242 C38.8521637 50.91935513 32.91162532 46.49012763 27 42 C16.7518589 34.22583731 6.44217602 26.55651652 -4.15966797 19.26855469 C-5.7627321 18.16355055 -7.35322027 17.04034579 -8.94140625 15.9140625 C-14.57466198 12.15855868 -19.23863972 10.67424308 -26 12 C-28.86058232 13.06532031 -31.3868095 14.43665022 -34 16 C-35.32863884 16.67597415 -36.6608194 17.34515838 -38 18 C-37.89965601 19.8952375 -37.89965601 19.8952375 -37 22 C-34.60854199 23.87533145 -34.60854199 23.87533145 -31.6875 25.5 C-22.89889877 30.66286321 -22.89889877 30.66286321 -21.0625 35.4375 C-20.97851937 38.88070595 -21.878256 40.3124576 -24 43 C-26.5520966 45.0148131 -27.97725797 46.07065575 -31.26171875 45.84375 C-34.81592303 44.74858862 -37.49336547 42.8217741 -40.4375 40.625 C-41.03715576 40.18309326 -41.63681152 39.74118652 -42.25463867 39.28588867 C-43.52228667 38.34681081 -44.78662688 37.40325359 -46.04785156 36.45556641 C-48.01220298 34.99090118 -50.00002701 33.56324621 -51.9921875 32.13671875 C-53.26680891 31.19691608 -54.54028341 30.25555553 -55.8125 29.3125 C-56.41698975 28.88598145 -57.02147949 28.45946289 -57.64428711 28.02001953 C-60.6295222 25.75291636 -61.97615595 24.06224775 -63.32421875 20.54296875 C-62.97451142 16.72146822 -62.8488584 16.3694985 -60.1640625 13.984375 C-58.79620005 12.96204207 -57.40609618 11.96907473 -56 11 C-55.24686523 10.45408203 -54.49373047 9.90816406 -53.71777344 9.34570312 C-51.29369537 7.61038525 -48.8405372 5.92579481 -46.375 4.25 C-45.54226562 3.67378906 -44.70953125 3.09757813 -43.8515625 2.50390625 C-43.04203125 1.95089844 -42.2325 1.39789063 -41.3984375 0.828125 C-40.31054932 0.0841748 -40.31054932 0.0841748 -39.20068359 -0.67480469 C-27.72165733 -7.58718039 -11.40430436 -6.79871991 0 0 Z " fill="#17B471" transform="translate(138,5)"/>
<path d="M0 0 C4.06197312 0.54225369 6.50688834 2.2968648 9.65625 4.7421875 C10.56250122 5.41725342 10.56250122 5.41725342 11.48706055 6.10595703 C12.76420105 7.05826141 14.03700538 8.01640553 15.30566406 8.97998047 C18.35473119 11.29051653 21.44479126 13.54450546 24.53125 15.8046875 C25.4596167 16.48917969 25.4596167 16.48917969 26.40673828 17.1875 C30.36919516 20.103251 34.37392899 22.94942349 38.40966797 25.76269531 C46.01978635 31.06963632 53.3908903 36.61005278 60.68310547 42.34545898 C67.3782749 47.59718785 74.26252758 52.53264535 81.21875 57.4296875 C84.90012299 60.07635507 88.56019648 62.75159001 92.21875 65.4296875 C92.8900293 65.91920898 93.56130859 66.40873047 94.25292969 66.91308594 C103.94810464 73.98680059 113.5366443 81.17008162 122.97924805 88.578125 C127.91784291 92.44555966 132.91889499 96.17804319 138.0546875 99.78125 C143.93884189 104.2634037 143.93884189 104.2634037 144.828125 107.96875 C144.96407077 110.95200438 145.08863748 113.93361322 145.14990234 116.91943359 C145.20107344 118.78518256 145.28154221 120.6501749 145.37744141 122.51416016 C145.55479229 125.96475895 145.67250449 129.41379584 145.78125 132.8671875 C145.84473633 133.9927002 145.90822266 135.11821289 145.97363281 136.27783203 C146.12238508 144.19121644 146.12238508 144.19121644 143.65063477 147.57885742 C141.6015216 149.40285325 139.50816863 150.92124233 137.21875 152.4296875 C136.03317771 153.33910878 134.85193882 154.25421623 133.67578125 155.17578125 C132.46329782 156.0761041 131.24835936 156.97312817 130.03125 157.8671875 C125.1825711 161.45801559 120.36073542 165.07801635 115.58203125 168.76171875 C114.63030029 169.49398682 113.67856934 170.22625488 112.69799805 170.98071289 C110.81254883 172.43330387 108.92983983 173.88945939 107.05004883 175.34936523 C106.19048584 176.01009033 105.33092285 176.67081543 104.4453125 177.3515625 C103.67783691 177.94549805 102.91036133 178.53943359 102.11962891 179.15136719 C100.21875 180.4296875 100.21875 180.4296875 98.21875 180.4296875 C98.21875 181.0896875 98.21875 181.7496875 98.21875 182.4296875 C92.80698529 186.4296875 92.80698529 186.4296875 90.21875 186.4296875 C90.21875 187.0896875 90.21875 187.7496875 90.21875 188.4296875 C88.58944398 189.48947034 86.91359934 190.47823415 85.21875 191.4296875 C74.03220065 198.53905653 63.54815887 206.55752834 53.05078125 214.6328125 C42.9111672 222.43106315 32.62856265 229.99614465 22.21875 237.4296875 C21.52990723 237.92194824 20.84106445 238.41420898 20.13134766 238.92138672 C14.94012066 242.63048261 14.94012066 242.63048261 12.63208008 244.2722168 C10.39753859 245.86293637 8.19000405 247.45288143 6.0546875 249.17578125 C3.08613529 251.20323925 0.69612935 250.86435992 -2.78125 250.4296875 C-5.50360378 248.4953835 -6.53217091 247.12355069 -7.65625 243.9921875 C-7.80848491 240.87137188 -7.16362806 239.22391862 -5.78125 236.4296875 C-3.94946289 234.68457031 -3.94946289 234.68457031 -1.75390625 233.1328125 C-0.96177734 232.56691406 -0.16964844 232.00101563 0.64648438 231.41796875 C1.88881836 230.55751953 1.88881836 230.55751953 3.15625 229.6796875 C3.98060547 229.09058594 4.80496094 228.50148437 5.65429688 227.89453125 C11.75134268 223.58548994 11.75134268 223.58548994 15.21875 222.4296875 C15.21875 221.7696875 15.21875 221.1096875 15.21875 220.4296875 C16.53875 220.0996875 17.85875 219.7696875 19.21875 219.4296875 C19.21875 218.7696875 19.21875 218.1096875 19.21875 217.4296875 C19.87875 217.4296875 20.53875 217.4296875 21.21875 217.4296875 C21.21875 216.7696875 21.21875 216.1096875 21.21875 215.4296875 C25.78566689 211.65955186 30.90907368 208.5693778 36.03125 205.6171875 C41.92841802 202.1471794 47.20500161 197.92876334 52.57080078 193.70996094 C55.190628 191.67464628 57.86316602 189.71381072 60.53125 187.7421875 C63.92034108 185.21811312 67.16059454 182.65260275 70.28125 179.8046875 C74.13047138 176.3274497 78.36832157 173.68354275 82.80078125 171.0078125 C85.20231807 169.55927418 85.20231807 169.55927418 86.85546875 167.7890625 C88.21875 166.4296875 88.21875 166.4296875 91.21875 165.4296875 C91.87875 164.7696875 92.53875 164.1096875 93.21875 163.4296875 C94.55413779 162.51502133 95.9053926 161.6233865 97.265625 160.74609375 C102.18033948 157.5047038 106.83327979 153.99306802 111.46875 150.3671875 C112.24476563 149.76841797 113.02078125 149.16964844 113.8203125 148.55273438 C122.94914385 141.91079267 122.94914385 141.91079267 127.62036133 132.09887695 C128.78522622 120.31029138 128.78522622 120.31029138 125.359375 109.40234375 C123.02088144 107.49966035 120.68216456 105.93492914 118.04199219 104.48291016 C115.24733812 102.86853714 112.68613656 100.95345282 110.07519531 99.06079102 C107.89676555 97.48532825 105.69898294 95.9416775 103.4921875 94.40625 C94.41834237 88.08747294 85.47046988 81.69517429 76.81298828 74.81396484 C65.33321843 65.72936855 53.40823128 57.22291542 41.42041016 48.82617188 C35.97155732 44.99607975 30.63679597 41.03052336 25.32543945 37.01269531 C19.4493477 32.576431 13.49066824 28.26022134 7.50805664 23.96899414 C6.10436707 22.9611717 4.70277325 21.9504228 3.3034668 20.93652344 C1.86111119 19.89398698 0.41152977 18.86140167 -1.04370117 17.83691406 C-1.76533447 17.31838867 -2.48696777 16.79986328 -3.23046875 16.265625 C-4.20632935 15.57412354 -4.20632935 15.57412354 -5.2019043 14.86865234 C-6.78125 13.4296875 -6.78125 13.4296875 -8.09375 9.9296875 C-7.6313173 4.75044127 -5.61342414 0.86724249 0 0 Z " fill="#0E91BF" transform="translate(39.78125,16.5703125)"/>
<path d="M0 0 C1.68443198 1.64870993 3.34949533 3.31732657 5 5 C16.08141467 14.10889079 27.95600282 22.3185891 39.6640625 30.59375 C46.67269965 35.55205164 53.53372016 40.66728206 60.33666992 45.90454102 C65.63762038 49.97822747 70.98902537 53.97701295 76.375 57.9375 C77.15593018 58.51346924 77.93686035 59.08943848 78.74145508 59.68286133 C82.88939264 62.73635178 87.05621333 65.75975566 91.25 68.75 C92.53704834 69.67631226 92.53704834 69.67631226 93.85009766 70.62133789 C95.48377987 71.79644542 97.12372278 72.96291815 98.77099609 74.11889648 C102.9895318 77.16642959 105.98571097 80.01513598 108.82861328 84.36889648 C110.72891939 87.01498759 113.18681084 88.83468783 115.75 90.8125 C120.91038251 94.82076503 120.91038251 94.82076503 122 97 C122.1587081 99.56952369 122.25931821 102.11521975 122.31640625 104.6875 C122.33723267 105.48172867 122.35805908 106.27595734 122.3795166 107.09425354 C122.44618934 109.72939835 122.50481694 112.36464402 122.5625 115 C122.58367889 115.89806366 122.60485779 116.79612732 122.62667847 117.72140503 C123.11188772 138.48023232 123.10281102 159.23692005 123 180 C122.01 180.33 121.02 180.66 120 181 C119.67 181.66 119.34 182.32 119 183 C119.33 181.35 119.66 179.7 120 178 C119.13375 178.350625 118.2675 178.70125 117.375 179.0625 C113.75174758 180.068959 111.6146678 179.86063519 108 179 C110.297221 177.25728062 112.59866729 175.60088848 115 174 C115.72382467 171.94074861 115.72382467 171.94074861 116 170 C116.66 170 117.32 170 118 170 C118 168.02 118 166.04 118 164 C117.34 164 116.68 164 116 164 C116 162.68 116 161.36 116 160 C116.66 160 117.32 160 118 160 C118 158.02 118 156.04 118 154 C117.34 154 116.68 154 116 154 C113.875 146.375 113.875 146.375 115 143 C115.30496809 140.77768623 115.54713326 138.54644922 115.75 136.3125 C115.86859375 135.13300781 115.9871875 133.95351562 116.109375 132.73828125 C116.17721425 128.16023509 116.17721425 128.16023509 113 121 C112.67 137.83 112.34 154.66 112 172 C111.67 172 111.34 172 111 172 C110.99413376 171.14222458 110.98826752 170.28444916 110.98222351 169.40068054 C110.9243522 161.32226697 110.85230779 153.24413152 110.76428509 145.16598797 C110.71953155 141.01277793 110.68028668 136.85966712 110.65356445 132.70629883 C110.6275808 128.69905724 110.58721416 124.69219648 110.53681374 120.6851902 C110.52011143 119.15541122 110.50861812 117.62556631 110.50238609 116.09570885 C110.49278108 113.95491867 110.46476779 111.81511013 110.43237305 109.67456055 C110.42126999 108.45544479 110.41016693 107.23632904 110.39872742 105.98027039 C110.24790338 103.01773089 110.24790338 103.01773089 108.61091614 101.13459778 C106.98625655 99.88913484 106.98625655 99.88913484 104.79296875 99.171875 C100.79926441 97.49619486 97.70385438 94.91276598 94.3125 92.25 C93.19862915 91.38761719 93.19862915 91.38761719 92.06225586 90.5078125 C88.20169917 87.51491947 84.35978482 84.4982773 80.515625 81.484375 C70.81643895 73.88972932 60.97612753 66.55049427 50.94921875 59.39404297 C47.44480157 56.88775263 43.96620085 54.34610623 40.484375 51.80859375 C38.80954881 50.58934135 37.13241037 49.37325964 35.453125 48.16015625 C30.72944802 44.74317689 26.04153617 41.28510719 21.38989258 37.77099609 C12.99267392 31.43212874 4.51120068 25.22911776 -4.15966797 19.26855469 C-5.7627321 18.16355055 -7.35322027 17.04034579 -8.94140625 15.9140625 C-14.57466198 12.15855868 -19.23863972 10.67424308 -26 12 C-28.86058232 13.06532031 -31.3868095 14.43665022 -34 16 C-35.32863884 16.67597415 -36.6608194 17.34515838 -38 18 C-37.89965601 19.8952375 -37.89965601 19.8952375 -37 22 C-34.60854199 23.87533145 -34.60854199 23.87533145 -31.6875 25.5 C-22.89889877 30.66286321 -22.89889877 30.66286321 -21.0625 35.4375 C-20.97851937 38.88070595 -21.878256 40.3124576 -24 43 C-26.5520966 45.0148131 -27.97725797 46.07065575 -31.26171875 45.84375 C-34.81592303 44.74858862 -37.49336547 42.8217741 -40.4375 40.625 C-41.03715576 40.18309326 -41.63681152 39.74118652 -42.25463867 39.28588867 C-43.52228667 38.34681081 -44.78662688 37.40325359 -46.04785156 36.45556641 C-48.01220298 34.99090118 -50.00002701 33.56324621 -51.9921875 32.13671875 C-53.26680891 31.19691608 -54.54028341 30.25555553 -55.8125 29.3125 C-56.41698975 28.88598145 -57.02147949 28.45946289 -57.64428711 28.02001953 C-60.6295222 25.75291636 -61.97615595 24.06224775 -63.32421875 20.54296875 C-62.97451142 16.72146822 -62.8488584 16.3694985 -60.1640625 13.984375 C-58.79620005 12.96204207 -57.40609618 11.96907473 -56 11 C-55.24686523 10.45408203 -54.49373047 9.90816406 -53.71777344 9.34570312 C-51.29369537 7.61038525 -48.8405372 5.92579481 -46.375 4.25 C-45.54226562 3.67378906 -44.70953125 3.09757813 -43.8515625 2.50390625 C-43.04203125 1.95089844 -42.2325 1.39789063 -41.3984375 0.828125 C-40.31054932 0.0841748 -40.31054932 0.0841748 -39.20068359 -0.67480469 C-27.72165733 -7.58718039 -11.40430436 -6.79871991 0 0 Z " fill="#0BB65A" transform="translate(138,5)"/>
<path d="M0 0 C2.67353375 1.61739153 5.06660205 3.54517627 7.5 5.5 C13.7807084 10.38548241 20.1748771 14.8365025 26.9140625 19.0625 C27.93242188 19.701875 28.95078125 20.34125 30 21 C30.57073242 21.35191406 31.14146484 21.70382813 31.72949219 22.06640625 C33.18787654 22.99144349 34.59894746 23.99023241 36 25 C36 25.66 36 26.32 36 27 C37.32 27.33 38.64 27.66 40 28 C40 28.66 40 29.32 40 30 C40.56952393 30.26248535 41.13904785 30.5249707 41.72583008 30.79541016 C44.16771675 32.08883676 46.20533442 33.57787183 48.38671875 35.2734375 C49.65926514 36.25558228 49.65926514 36.25558228 50.95751953 37.25756836 C51.85841309 37.9563208 52.75930664 38.65507324 53.6875 39.375 C60.58687355 44.6781961 67.52174145 49.90976259 74.625 54.9375 C75.32842529 55.43878418 76.03185059 55.94006836 76.7565918 56.45654297 C79.4810005 58.36960527 81.82386908 59.94128969 85 61 C86.12375902 62.12375902 87.24276346 63.25271665 88.3359375 64.40625 C91.26709719 67.21355787 94.56026673 69.58760824 97.79296875 72.03515625 C99.97657894 73.97914904 101.02131401 75.27287499 102 78 C101.92011943 81.75438687 101.39358486 83.52031846 99 86.4375 C95.96118038 89.03315843 92.86853772 91.51018045 89.69140625 93.93359375 C87.18122309 95.86086065 84.7073605 97.82906735 82.2355957 99.80517578 C76.5754047 104.31326433 70.80957485 108.60977596 64.875 112.75 C58.33834195 117.31405264 51.88985289 121.9823057 45.5 126.75 C44.68772949 127.35166992 43.87545898 127.95333984 43.03857422 128.57324219 C38.15904951 132.23163559 33.55506739 136.08104662 29.06201172 140.20581055 C25.62798934 143.19380847 21.84964784 145.58688196 18 148 C16.14485275 149.16510678 14.29072099 150.33183173 12.4375 151.5 C11.05111328 152.36818359 11.05111328 152.36818359 9.63671875 153.25390625 C7.20706441 154.86287734 4.99870787 156.58894904 2.75 158.4375 C-0.05923594 160.58472337 -1.08319195 161.01386533 -4.75 161.625 C-8 161 -8 161 -10.4375 159.5 C-12.19802186 156.68316502 -12.81406853 154.42081916 -12.640625 151.08203125 C-11.31938704 146.78800788 -7.5049584 144.53435453 -4 142 C-3.31808594 141.48566406 -2.63617188 140.97132813 -1.93359375 140.44140625 C-0.60015206 139.4367584 0.73977248 138.44065919 2.0859375 137.453125 C3.8675651 136.10054241 5.5228409 134.67995298 7.1875 133.1875 C14.11632999 127.15626844 22.06695098 122.25930569 29.75 117.25 C34.89827873 113.83378845 39.83715296 110.18357258 44.75 106.4375 C45.44706055 105.90737305 46.14412109 105.37724609 46.86230469 104.83105469 C50.36054685 102.13895083 53.73799715 99.37413485 57.02734375 96.4296875 C60.74161627 93.14041084 64.64765911 90.37244819 68.8125 87.6875 C69.46669922 87.25888672 70.12089844 86.83027344 70.79492188 86.38867188 C72.52699761 85.25459573 74.26326164 84.12692276 76 83 C76.99 82.34 77.98 81.68 79 81 C77.79401273 77.38203819 76.808471 76.93573683 73.6875 74.875 C69.90624927 72.31333577 66.20540019 69.69276394 62.5625 66.9375 C57.13052742 62.83882978 51.66563186 58.78676794 46.1875 54.75 C45.38707275 54.15952881 44.58664551 53.56905762 43.76196289 52.96069336 C35.28175559 46.31718129 35.28175559 46.31718129 26 41 C26 40.34 26 39.68 26 39 C25.42652832 38.7321167 24.85305664 38.4642334 24.26220703 38.18823242 C21.92345597 36.95979497 19.92013411 35.56875704 17.8046875 33.98828125 C17.01078613 33.39845459 16.21688477 32.80862793 15.39892578 32.20092773 C14.56603027 31.57774658 13.73313477 30.95456543 12.875 30.3125 C7.67458001 26.44291163 2.48101815 22.58933056 -2.875 18.9375 C-6.335686 16.51743986 -9.41273747 14.36344129 -12 11 C-12.55348638 7.12559532 -12.29968563 4.21955988 -10 1 C-6.55625864 -1.58280602 -4.03618367 -1.07536818 0 0 Z " fill="#088AC1" transform="translate(12,62)"/>
<path d="M0 0 C0.71994141 0.36738281 1.43988281 0.73476562 2.18164062 1.11328125 C3.25575195 1.62955078 3.25575195 1.62955078 4.3515625 2.15625 C8.76073504 4.37105215 11.28232224 6.45795877 14.24414062 10.48828125 C16.10292874 12.0946738 18.00048433 13.65715501 19.93164062 15.17578125 C25.14031549 19.28063098 25.14031549 19.28063098 26.24414062 21.48828125 C26.40284872 24.05780494 26.50345884 26.603501 26.56054688 29.17578125 C26.5917865 30.36712425 26.5917865 30.36712425 26.62365723 31.58253479 C26.69032997 34.2176796 26.74895757 36.85292527 26.80664062 39.48828125 C26.83840897 40.83537674 26.83840897 40.83537674 26.87081909 42.20968628 C27.35602835 62.96851357 27.34695164 83.7252013 27.24414062 104.48828125 C26.25414062 104.81828125 25.26414062 105.14828125 24.24414062 105.48828125 C23.91414063 106.14828125 23.58414063 106.80828125 23.24414062 107.48828125 C23.57414062 105.83828125 23.90414062 104.18828125 24.24414062 102.48828125 C23.37789063 102.83890625 22.51164062 103.18953125 21.61914062 103.55078125 C17.99588821 104.55724025 15.85880843 104.34891644 12.24414062 103.48828125 C14.54136163 101.74556187 16.84280791 100.08916973 19.24414062 98.48828125 C19.96796529 96.42902986 19.96796529 96.42902986 20.24414062 94.48828125 C20.90414062 94.48828125 21.56414062 94.48828125 22.24414062 94.48828125 C22.24414062 92.50828125 22.24414062 90.52828125 22.24414062 88.48828125 C21.58414063 88.48828125 20.92414063 88.48828125 20.24414062 88.48828125 C20.24414062 87.16828125 20.24414062 85.84828125 20.24414062 84.48828125 C20.90414062 84.48828125 21.56414062 84.48828125 22.24414062 84.48828125 C22.24414062 82.50828125 22.24414062 80.52828125 22.24414062 78.48828125 C21.58414063 78.48828125 20.92414063 78.48828125 20.24414062 78.48828125 C18.11914062 70.86328125 18.11914062 70.86328125 19.24414062 67.48828125 C19.54910872 65.26596748 19.79127389 63.03473047 19.99414062 60.80078125 C20.11273438 59.62128906 20.23132813 58.44179687 20.35351562 57.2265625 C20.42135488 52.64851634 20.42135488 52.64851634 17.24414062 45.48828125 C16.91414063 62.31828125 16.58414063 79.14828125 16.24414062 96.48828125 C15.91414063 96.48828125 15.58414063 96.48828125 15.24414062 96.48828125 C15.23534126 95.20161812 15.23534126 95.20161812 15.22636414 93.88896179 C15.16849283 85.81054822 15.09644841 77.73241277 15.00842571 69.65426922 C14.96367217 65.50105918 14.9244273 61.34794837 14.89770508 57.19458008 C14.87172143 53.18733849 14.83135479 49.18047773 14.78095436 45.17347145 C14.76425205 43.64369247 14.75275874 42.11384756 14.74652672 40.5839901 C14.7369217 38.44319992 14.70890841 36.30339138 14.67651367 34.1628418 C14.66541061 32.94372604 14.65430756 31.72461029 14.64286804 30.46855164 C14.49168922 27.50902197 14.49168922 27.50902197 12.86726379 25.63264465 C10.79013203 24.16818797 8.60809951 23.41253585 6.24414062 22.48828125 C0.81831495 18.9381626 -3.67901846 15.240636 -6.75585938 9.48828125 C-6.75585938 8.82828125 -6.75585938 8.16828125 -6.75585938 7.48828125 C-8.07585937 7.15828125 -9.39585937 6.82828125 -10.75585938 6.48828125 C-10.9567238 2.77228934 -10.90780307 1.7161968 -8.75585938 -1.51171875 C-4.96495154 -2.77535469 -3.46426399 -1.70479101 0 0 Z " fill="#1ABE58" transform="translate(233.755859375,80.51171875)"/>
<path d="M0 0 C0 0.66 0 1.32 0 2 C-1.48886719 1.566875 -1.48886719 1.566875 -3.0078125 1.125 C-13.16280678 -1.70310049 -24.61472151 -4.87357045 -34.6875 -0.25 C-37.45158895 1.4072696 -39.37771259 3.16099704 -41 6 C-40.34 6 -39.68 6 -39 6 C-39 6.66 -39 7.32 -39 8 C-39.99 8 -40.98 8 -42 8 C-42.25030977 10.41619823 -42.25030977 10.41619823 -42 13 C-41.01 13.66 -40.02 14.32 -39 15 C-39 14.34 -39 13.68 -39 13 C-38.01 13 -37.02 13 -36 13 C-36 12.34 -36 11.68 -36 11 C-31.45124532 8.73014429 -27.40558607 8.66617774 -22.4375 8.6875 C-21.30538086 8.66333008 -21.30538086 8.66333008 -20.15039062 8.63867188 C-15.75111725 8.63479586 -13.23690152 8.9683654 -10 12 C-9.319375 12.103125 -8.63875 12.20625 -7.9375 12.3125 C-6 13 -6 13 -4.25 16.0625 C-3.8375 17.031875 -3.425 18.00125 -3 19 C-5.08599497 17.99909659 -7.05922015 16.96197928 -9.0078125 15.7109375 C-14.67256073 12.13650227 -19.32991755 10.80776304 -26 12 C-28.86335058 13.05958756 -31.38649374 14.43646132 -34 16 C-35.32863884 16.67597415 -36.6608194 17.34515838 -38 18 C-37.89965601 19.8952375 -37.89965601 19.8952375 -37 22 C-34.60854199 23.87533145 -34.60854199 23.87533145 -31.6875 25.5 C-22.89889877 30.66286321 -22.89889877 30.66286321 -21.0625 35.4375 C-20.97851937 38.88070595 -21.878256 40.3124576 -24 43 C-26.5520966 45.0148131 -27.97725797 46.07065575 -31.26171875 45.84375 C-34.81592303 44.74858862 -37.49336547 42.8217741 -40.4375 40.625 C-41.03715576 40.18309326 -41.63681152 39.74118652 -42.25463867 39.28588867 C-43.52228667 38.34681081 -44.78662688 37.40325359 -46.04785156 36.45556641 C-48.01220298 34.99090118 -50.00002701 33.56324621 -51.9921875 32.13671875 C-53.26680891 31.19691608 -54.54028341 30.25555553 -55.8125 29.3125 C-56.41698975 28.88598145 -57.02147949 28.45946289 -57.64428711 28.02001953 C-60.6295222 25.75291636 -61.97615595 24.06224775 -63.32421875 20.54296875 C-62.97451142 16.72146822 -62.8488584 16.3694985 -60.1640625 13.984375 C-58.79620005 12.96204207 -57.40609618 11.96907473 -56 11 C-55.24686523 10.45408203 -54.49373047 9.90816406 -53.71777344 9.34570312 C-51.29369537 7.61038525 -48.8405372 5.92579481 -46.375 4.25 C-45.54226562 3.67378906 -44.70953125 3.09757813 -43.8515625 2.50390625 C-43.04203125 1.95089844 -42.2325 1.39789063 -41.3984375 0.828125 C-40.31054932 0.0841748 -40.31054932 0.0841748 -39.20068359 -0.67480469 C-27.24998736 -7.87120797 -11.9576642 -6.2505972 0 0 Z M-50 12 C-49.34 13.65 -48.68 15.3 -48 17 C-46.35 16.34 -44.7 15.68 -43 15 C-43.33 13.35 -43.66 11.7 -44 10 C-46.08428209 10 -48.09817964 11.21976601 -50 12 Z " fill="#07BA56" transform="translate(138,5)"/>
<path d="M0 0 C3.25537177 2.17024784 4.07011218 3.68059295 6 7 C7.31037934 8.68477344 8.63823078 10.35648543 10 12 C10.99 11.67 11.98 11.34 13 11 C17.875 15.625 17.875 15.625 19 19 C21.00016466 20.20882096 21.00016466 20.20882096 23 21 C23 22.65 23 24.3 23 26 C21.68 25.67 20.36 25.34 19 25 C19 25.99 19 26.98 19 28 C14.80448459 27.4530846 12.36254974 26.08966629 9 23.5625 C6.41612295 21.62862952 4.26389865 20.10181622 1.24609375 18.9375 C0.50488281 18.628125 -0.23632812 18.31875 -1 18 C-1.309375 17.154375 -1.61875 16.30875 -1.9375 15.4375 C-2.288125 14.633125 -2.63875 13.82875 -3 13 C-5.97980236 12.25335353 -5.97980236 12.25335353 -9 12 C-9.66 11.34 -10.32 10.68 -11 10 C-13.80862574 9.82684543 -16.50681366 9.7679653 -19.3125 9.8125 C-20.07240234 9.81314453 -20.83230469 9.81378906 -21.61523438 9.81445312 C-25.53515315 9.8451041 -29.17356553 10.04530078 -33 11 C-33 11.66 -33 12.32 -33 13 C-33.99 13 -34.98 13 -36 13 C-36 13.66 -36 14.32 -36 15 C-37.32 14.34 -38.64 13.68 -40 13 C-39.67 11.35 -39.34 9.7 -39 8 C-38.01 8 -37.02 8 -36 8 C-36 7.34 -36 6.68 -36 6 C-36.66 6 -37.32 6 -38 6 C-36.49364535 1.78220697 -33.75987578 0.2252326 -30 -2 C-20.57787531 -5.14070823 -9.23500941 -2.97375488 0 0 Z M-42 10 C-41.34 11.32 -40.68 12.64 -40 14 C-41.375 15.5 -41.375 15.5 -43 17 C-43.66 17 -44.32 17 -45 17 C-45.66 15.35 -46.32 13.7 -47 12 C-45.35 11.34 -43.7 10.68 -42 10 Z " fill="#02BE52" transform="translate(135,5)"/>
<path d="M0 0 C4.77169849 2.60165471 9.03478935 5.43594151 13.25 8.875 C21.24996009 15.28359396 29.51329598 21.3177186 37.78417969 27.36962891 C41.20779446 29.88867909 44.60589941 32.44137924 48 35 C47.01 35.495 47.01 35.495 46 36 C43.7578125 35.07421875 43.7578125 35.07421875 41.125 33.6875 C40.26132813 33.23761719 39.39765625 32.78773437 38.5078125 32.32421875 C36.95515109 31.50435548 35.407218 30.67538128 33.8671875 29.83203125 C31.88398784 28.79648761 31.88398784 28.79648761 29 29 C28.34 31.64 27.68 34.28 27 37 C28.32 37.33 29.64 37.66 31 38 C32.69968841 40.18756193 33.73478913 42.51476437 35 45 C32.29054062 43.72189027 29.95668953 42.32631064 27.59375 40.48828125 C26.94196777 39.98490234 26.29018555 39.48152344 25.61865234 38.96289062 C24.91949707 38.41826172 24.2203418 37.87363281 23.5 37.3125 C21.98242198 36.14108303 20.46416316 34.97054765 18.9453125 33.80078125 C17.74503418 32.87579834 17.74503418 32.87579834 16.52050781 31.93212891 C12.16167834 28.59081 7.76927747 25.29448294 3.375 22 C2.54677734 21.37778564 1.71855469 20.75557129 0.86523438 20.11450195 C-3.7149584 16.68168282 -8.32794591 13.30676214 -13 10 C-12.34 9.67 -11.68 9.34 -11 9 C-8.8359375 9.77734375 -8.8359375 9.77734375 -6.375 10.9375 C-5.55773437 11.31777344 -4.74046875 11.69804688 -3.8984375 12.08984375 C-3.27195313 12.39019531 -2.64546875 12.69054688 -2 13 C-2 13.66 -2 14.32 -2 15 C-0.58344207 15.0272415 0.83327045 15.04650467 2.25 15.0625 C3.03890625 15.07410156 3.8278125 15.08570312 4.640625 15.09765625 C6.90691002 15.00385306 8.8288895 14.63241063 11 14 C10.505 13.5875 10.01 13.175 9.5 12.75 C8 11 8 11 8 7 C7.236875 6.731875 6.47375 6.46375 5.6875 6.1875 C3.11011382 5.04865495 1.73045136 4.18583329 0 2 C0 1.34 0 0.68 0 0 Z " fill="#3ABA65" transform="translate(196,50)"/>
<path d="M0 0 C0.71994141 0.36738281 1.43988281 0.73476562 2.18164062 1.11328125 C3.25575195 1.62955078 3.25575195 1.62955078 4.3515625 2.15625 C8.76716027 4.37427965 11.25571905 6.47435921 14.24414062 10.48828125 C16.13680601 11.93685755 18.0546951 13.35296302 19.99414062 14.73828125 C25.00431158 18.72106695 25.00431158 18.72106695 26.02929688 22 C26.05587943 24.35825243 25.95248141 26.23965579 25.24414062 28.48828125 C24.58414063 29.14828125 23.92414063 29.80828125 23.24414062 30.48828125 C19.09116145 28.96269706 16.0622838 27.503877 12.80664062 24.48828125 C10.32973325 22.22288507 8.30805717 20.97279888 5.11914062 19.92578125 C-0.30086647 18.14357389 -3.67585165 14.18934567 -6.75585938 9.48828125 C-6.75585938 8.82828125 -6.75585938 8.16828125 -6.75585938 7.48828125 C-8.07585937 7.15828125 -9.39585937 6.82828125 -10.75585938 6.48828125 C-10.9567238 2.77228934 -10.90780307 1.7161968 -8.75585938 -1.51171875 C-4.96495154 -2.77535469 -3.46426399 -1.70479101 0 0 Z " fill="#07B954" transform="translate(233.755859375,80.51171875)"/>
<path d="M0 0 C4.07425316 1.90131814 6.33449904 3.760543 8 8 C8.21833239 10.24412529 8.35632363 12.49674064 8.4375 14.75 C8.73933318 20.54213787 8.73933318 20.54213787 10.625 25.9375 C13.38366255 32.0842287 12.00668239 41.05070755 10.390625 47.390625 C10.26171875 47.92171875 10.1328125 48.4528125 10 49 C10.495 49.495 10.495 49.495 11 50 C11.04063832 51.66617115 11.042721 53.33388095 11 55 C11.66 55 12.32 55 13 55 C13 56.98 13 58.96 13 61 C12.34 61 11.68 61 11 61 C11 62.32 11 63.64 11 65 C11.66 65 12.32 65 13 65 C13 66.98 13 68.96 13 71 C12.34 71 11.68 71 11 71 C11 72.65 11 74.3 11 76 C2.94007365 80.69266823 2.94007365 80.69266823 -1.25 82.0625 C-4.44911781 83.15310834 -6.48194891 84.77819021 -9 87 C-9.66 86.67 -10.32 86.34 -11 86 C-7.56209564 82.8651328 -4.24826538 80.0064528 -0.125 77.8125 C3.26551144 76.30677143 3.26551144 76.30677143 4 73 C4.10958603 70.83416187 4.15900647 68.66511611 4.17700195 66.49658203 C4.18357315 65.84093262 4.19014435 65.1852832 4.19691467 64.50976562 C4.2166075 62.3424467 4.22830018 60.17519687 4.23828125 58.0078125 C4.24235678 57.26659023 4.2464323 56.52536797 4.25063133 55.76168442 C4.27147329 51.83966095 4.28578401 47.9176723 4.29516602 43.99560547 C4.30623672 39.94799518 4.34064888 35.9009337 4.38033772 31.85351753 C4.40649541 28.73765041 4.41485697 25.62191438 4.41844749 22.50594711 C4.42331439 21.01401938 4.43493146 19.52209755 4.45348549 18.03027725 C4.47786464 15.94047862 4.47691553 13.85210467 4.4699707 11.76220703 C4.47583694 10.57434601 4.48170319 9.38648499 4.48774719 8.16262817 C3.90743032 4.39976391 2.58811984 2.72830039 0 0 Z " fill="#30BD5C" transform="translate(243,104)"/>
<path d="M0 0 C5.05901157 3.29480212 9.90410776 6.83839059 14.75 10.4375 C22.21783843 15.96877083 29.72783357 21.4359786 37.29980469 26.82397461 C38.00524414 27.32936768 38.71068359 27.83476074 39.4375 28.35546875 C40.36369141 29.01518677 40.36369141 29.01518677 41.30859375 29.68823242 C43.0178608 31.01385191 44.50578433 32.43867028 46 34 C43.64828869 33.40138258 41.3140622 32.73075648 39 32 C38.505 31.01 38.505 31.01 38 30 C34.00855246 28.08103484 30.40219569 26.66699935 26 26 C26 26.66 26 27.32 26 28 C26.66 28.33 27.32 28.66 28 29 C27.01 29 26.02 29 25 29 C25 29.66 25 30.32 25 31 C24.34 31 23.68 31 23 31 C23.99 33.31 24.98 35.62 26 38 C23.07632845 36.62427488 20.52677523 35.03983194 17.91796875 33.13671875 C16.76651367 32.30043945 16.76651367 32.30043945 15.59179688 31.44726562 C14.79837891 30.86654297 14.00496094 30.28582031 13.1875 29.6875 C11.61859888 28.54542276 10.04958992 27.40349364 8.48046875 26.26171875 C7.3519751 25.43873291 7.3519751 25.43873291 6.20068359 24.59912109 C3.14722851 22.38033578 0.07527752 20.18841511 -3 18 C-1.18188477 17.39892578 -1.18188477 17.39892578 1 17 C3.91015625 18.6171875 3.91015625 18.6171875 7.0625 20.875 C11.28319538 23.92468352 11.28319538 23.92468352 16 26 C16 25.01 16 24.02 16 23 C17.32 23.33 18.64 23.66 20 24 C19.81171228 21.55519921 19.81171228 21.55519921 19 19 C17.06669397 17.90833725 17.06669397 17.90833725 15 17 C14.30062468 15.68352881 13.63270867 14.34977849 13 13 C12.01 12.34 11.02 11.68 10 11 C10 10.34 10 9.68 10 9 C9.34 9 8.68 9 8 9 C7.67 9.66 7.34 10.32 7 11 C5.82439821 9.73742767 4.65977135 8.46462916 3.5 7.1875 C2.52546875 6.12595703 2.52546875 6.12595703 1.53125 5.04296875 C0 3 0 3 0 0 Z " fill="#1EB95E" transform="translate(138,7)"/>
<path d="M0 0 C3.94560346 1.3763733 6.81848256 3.19021078 10.0625 5.8125 C11.31740234 6.81216797 11.31740234 6.81216797 12.59765625 7.83203125 C16.44827971 11.30698412 18.79277604 13.44683287 19.50120544 18.7565918 C19.52181837 20.23732399 19.52055486 21.71846301 19.50170898 23.19921875 C19.50711197 24.01121735 19.51251495 24.82321594 19.51808167 25.65982056 C19.5305591 28.33608783 19.51408495 31.01127723 19.49609375 33.6875 C19.49624876 35.55167701 19.4977381 37.41585434 19.50050354 39.2800293 C19.50188709 43.18390172 19.48933684 47.08740656 19.46655273 50.99121094 C19.43816827 55.99155711 19.44090603 60.9912926 19.45364285 65.99168396 C19.46060271 69.8401815 19.45280721 73.68853826 19.44038582 77.53701782 C19.43587432 79.38057922 19.43553189 81.22415575 19.43945122 83.06771851 C19.44236646 85.64572044 19.42584187 88.22288519 19.40405273 90.80078125 C19.40855438 91.56041168 19.41305603 92.32004211 19.41769409 93.10269165 C19.34017038 98.631981 18.0397632 101.80914323 14.3125 105.8125 C13.6628125 106.4003125 13.6628125 106.4003125 13 107 C12.34 106.67 11.68 106.34 11 106 C13.75 100.125 13.75 100.125 16 99 C16.064346 86.00507699 16.06801886 73.010968 16.01245117 60.01599121 C16.00419879 58.01705394 15.9971853 56.01811114 15.99145508 54.01916504 C15.97397602 48.30752864 15.92990779 42.59726748 15.84640503 36.88619995 C15.82387537 35.09293233 15.80992291 33.29953562 15.80471802 31.50613403 C15.79555233 28.99663878 15.75520084 26.48947744 15.70703125 23.98046875 C15.71095886 23.24269196 15.71488647 22.50491516 15.71893311 21.74478149 C15.60723204 17.84057166 15.14294981 16.1711868 12.60717773 13.13452148 C11.31662476 12.07793335 11.31662476 12.07793335 10 11 C9.20078125 10.29617187 8.4015625 9.59234375 7.578125 8.8671875 C6.01745389 7.5317139 4.45493099 6.19840154 2.890625 4.8671875 C1 3 1 3 0 0 Z " fill="#72C787" transform="translate(244,86)"/>
<path d="M0 0 C4.83551226 2.6342261 9.16005396 5.52339182 13.4375 9 C18.84658677 13.32622605 24.32574721 17.5424694 29.875 21.6875 C30.93738892 22.48124023 30.93738892 22.48124023 32.02124023 23.29101562 C33.67984933 24.52865481 35.33977282 25.76453224 37 27 C36.01 27.495 36.01 27.495 35 28 C32.43730503 26.95890517 30.97389657 25.97389657 29 24 C26.94968628 23.19916172 24.87559499 22.54290981 22.77734375 21.87890625 C21.89755859 21.44384766 21.89755859 21.44384766 21 21 C20.505 19.515 20.505 19.515 20 18 C15.10104783 16.81503452 15.10104783 16.81503452 10.5625 18.4375 C10.046875 18.953125 9.53125 19.46875 9 20 C9.66 20.61875 10.32 21.2375 11 21.875 C13 24 13 24 13 26 C14.32 26.66 15.64 27.32 17 28 C17 28.99 17 29.98 17 31 C13.96828525 29.58611188 11.37980573 27.91503118 8.69921875 25.91796875 C7.88646484 25.31533203 7.07371094 24.71269531 6.23632812 24.09179688 C4.9746582 23.14916992 4.9746582 23.14916992 3.6875 22.1875 C2.02509122 20.95134988 0.36233637 19.71566503 -1.30078125 18.48046875 C-2.09436035 17.89056152 -2.88793945 17.3006543 -3.70556641 16.69287109 C-6.77857128 14.42555722 -9.88396515 12.207717 -13 10 C-12.34 9.67 -11.68 9.34 -11 9 C-8.8359375 9.77734375 -8.8359375 9.77734375 -6.375 10.9375 C-5.55773437 11.31777344 -4.74046875 11.69804688 -3.8984375 12.08984375 C-3.27195313 12.39019531 -2.64546875 12.69054688 -2 13 C-2 13.66 -2 14.32 -2 15 C-0.58344207 15.0272415 0.83327045 15.04650467 2.25 15.0625 C3.03890625 15.07410156 3.8278125 15.08570312 4.640625 15.09765625 C6.90691002 15.00385306 8.8288895 14.63241063 11 14 C10.505 13.5875 10.01 13.175 9.5 12.75 C8 11 8 11 8 7 C7.236875 6.731875 6.47375 6.46375 5.6875 6.1875 C3.11011382 5.04865495 1.73045136 4.18583329 0 2 C0 1.34 0 0.68 0 0 Z " fill="#37B863" transform="translate(196,50)"/>
<path d="M0 0 C4.06924083 1.89897905 6.34402875 3.75911737 8 8 C8.26069641 11.00440979 8.26069641 11.00440979 8.2746582 14.55688477 C8.2823246 15.53076645 8.2823246 15.53076645 8.29014587 16.52432251 C8.30400972 18.66344499 8.30308808 20.80224427 8.30078125 22.94140625 C8.30466899 24.43066019 8.30900383 25.91991303 8.31376648 27.40916443 C8.32122105 30.5269633 8.32094228 33.64464889 8.31567383 36.76245117 C8.30986977 40.75971651 8.326836 44.75651992 8.3500185 48.75370884 C8.36473913 51.82747613 8.36563003 54.90113161 8.36250877 57.9749279 C8.36302249 59.44894262 8.3682697 60.92296351 8.37832069 62.39694405 C8.39064068 64.4557734 8.3839222 66.51369525 8.37231445 68.57250977 C8.37294388 69.74403091 8.3735733 70.91555206 8.3742218 72.12257385 C8 75 8 75 6.60710144 76.82383728 C4.69013589 78.22677511 2.73251893 79.34058315 0.625 80.4375 C-2.8953517 82.33263223 -5.97209756 84.36279465 -9 87 C-9.66 86.67 -10.32 86.34 -11 86 C-7.56209564 82.8651328 -4.24826538 80.0064528 -0.125 77.8125 C3.26551144 76.30677143 3.26551144 76.30677143 4 73 C4.10958603 70.83416187 4.15900647 68.66511611 4.17700195 66.49658203 C4.18357315 65.84093262 4.19014435 65.1852832 4.19691467 64.50976562 C4.2166075 62.3424467 4.22830018 60.17519687 4.23828125 58.0078125 C4.24235678 57.26659023 4.2464323 56.52536797 4.25063133 55.76168442 C4.27147329 51.83966095 4.28578401 47.9176723 4.29516602 43.99560547 C4.30623672 39.94799518 4.34064888 35.9009337 4.38033772 31.85351753 C4.40649541 28.73765041 4.41485697 25.62191438 4.41844749 22.50594711 C4.42331439 21.01401938 4.43493146 19.52209755 4.45348549 18.03027725 C4.47786464 15.94047862 4.47691553 13.85210467 4.4699707 11.76220703 C4.47583694 10.57434601 4.48170319 9.38648499 4.48774719 8.16262817 C3.90743032 4.39976391 2.58811984 2.72830039 0 0 Z " fill="#7BD090" transform="translate(243,104)"/>
<path d="M0 0 C0 0.66 0 1.32 0 2 C-1.48886719 1.566875 -1.48886719 1.566875 -3.0078125 1.125 C-18.83937987 -3.30956171 -18.83937987 -3.30956171 -34.5625 -0.25 C-37.58863285 1.58227875 -40.30887434 3.7026976 -43 6 C-47.83540925 10.01447223 -51.8423733 13.30665266 -58 15 C-58.33 15.66 -58.66 16.32 -59 17 C-59.66 17 -60.32 17 -61 17 C-60.34 19.64 -59.68 22.28 -59 25 C-59.99 24.67 -60.98 24.34 -62 24 C-62.9375 20.875 -62.9375 20.875 -63 17 C-61.81323242 15.54638672 -61.81323242 15.54638672 -60.10546875 14.1796875 C-59.46456299 13.66615723 -58.82365723 13.15262695 -58.16333008 12.62353516 C-54.30341404 9.72674679 -50.36603634 6.96265751 -46.375 4.25 C-45.54226562 3.67378906 -44.70953125 3.09757813 -43.8515625 2.50390625 C-43.04203125 1.95089844 -42.2325 1.39789063 -41.3984375 0.828125 C-40.31054932 0.0841748 -40.31054932 0.0841748 -39.20068359 -0.67480469 C-27.24998736 -7.87120797 -11.9576642 -6.2505972 0 0 Z " fill="#7ECC91" transform="translate(138,5)"/>
<path d="M0 0 C2 0 2 0 4.5625 2.3125 C7 5 7 5 8 8 C10.00016466 9.20882096 10.00016466 9.20882096 12 10 C12 11.65 12 13.3 12 15 C10.68 14.67 9.36 14.34 8 14 C8 14.99 8 15.98 8 17 C3.7170548 16.4520917 1.14864359 14.97567196 -2.3125 12.4375 C-3.19550781 11.79683594 -4.07851562 11.15617187 -4.98828125 10.49609375 C-5.65214844 10.00238281 -6.31601563 9.50867187 -7 9 C-4 8 -4 8 0 8 C0 5.36 0 2.72 0 0 Z " fill="#12BC5A" transform="translate(146,16)"/>
<path d="M0 0 C5.46003007 1.33171465 9.29700943 3.83779951 13 8 C14.4375 11.375 14.4375 11.375 15 14 C15.66 13.01 16.32 12.02 17 11 C17.8250525 14.30021001 18.42348518 16.82453305 17 20 C15.02 20.99 15.02 20.99 13 22 C12.67 40.15 12.34 58.3 12 77 C11.67 77 11.34 77 11 77 C10.99413376 76.14222458 10.98826752 75.28444916 10.98222351 74.40068054 C10.9243522 66.32226697 10.85230779 58.24413152 10.76428509 50.16598797 C10.71953155 46.01277793 10.68028668 41.85966712 10.65356445 37.70629883 C10.6275808 33.69905724 10.58721416 29.69219648 10.53681374 25.6851902 C10.52011143 24.15541122 10.50861812 22.62556631 10.50238609 21.09570885 C10.49278108 18.95491867 10.46476779 16.81511013 10.43237305 14.67456055 C10.42126999 13.45544479 10.41016693 12.23632904 10.39872742 10.98027039 C10.24639339 8.02281797 10.24639339 8.02281797 8.63313293 6.14533997 C6.93436052 4.85762536 6.93436052 4.85762536 4.4375 4 C2 3 2 3 0 0 Z " fill="#43B662" transform="translate(238,100)"/>
<path d="M0 0 C0.61875 0.2475 1.2375 0.495 1.875 0.75 C2.865 1.08 3.855 1.41 4.875 1.75 C5.865 3.235 5.865 3.235 6.875 4.75 C7.865 5.08 8.855 5.41 9.875 5.75 C9.875 6.74 9.875 7.73 9.875 8.75 C8.885 9.41 7.895 10.07 6.875 10.75 C6.875 12.07 6.875 13.39 6.875 14.75 C5.225 14.75 3.575 14.75 1.875 14.75 C1.648125 14.193125 1.42125 13.63625 1.1875 13.0625 C-0.4842504 10.11703501 -2.70781215 8.10675815 -5.125 5.75 C-5.785 4.76 -6.445 3.77 -7.125 2.75 C-2.70648893 -0.31841046 -2.70648893 -0.31841046 0 0 Z " fill="#26BB5D" transform="translate(211.125,66.25)"/>
<path d="M0 0 C4.56203998 0.57132089 7.68912417 2.39332321 11.5625 4.8125 C12.67753906 5.49957031 13.79257813 6.18664062 14.94140625 6.89453125 C17.65019559 8.75920233 19.75263919 10.62307959 22 13 C22.86625 13.66 23.7325 14.32 24.625 15 C26.92344008 16.93552849 27.91715395 18.24366461 29 21 C26.07632845 19.62427488 23.52677523 18.03983194 20.91796875 16.13671875 C20.15033203 15.57919922 19.38269531 15.02167969 18.59179688 14.44726562 C17.79837891 13.86654297 17.00496094 13.28582031 16.1875 12.6875 C14.61859888 11.54542276 13.04958992 10.40349364 11.48046875 9.26171875 C10.3519751 8.43679932 10.3519751 8.43679932 9.20068359 7.59521484 C7.12369219 6.08966106 5.02729742 4.61553967 2.92578125 3.14453125 C1.96027344 2.43683594 0.99476563 1.72914062 0 1 C0 0.67 0 0.34 0 0 Z " fill="#72C78B" transform="translate(135,24)"/>
<path d="M0 0 C0.66 0.33 1.32 0.66 2 1 C1.0615625 1.68707031 0.123125 2.37414062 -0.84375 3.08203125 C-2.06287456 3.99168573 -3.28160429 4.90186953 -4.5 5.8125 C-5.12003906 6.26431641 -5.74007812 6.71613281 -6.37890625 7.18164062 C-7.97533962 8.38335146 -9.49417079 9.68653633 -11 11 C-11 11.99 -11 12.98 -11 14 C-15.84922369 18.14204524 -19.77547035 19.79877498 -26 21 C-21.375 16.125 -21.375 16.125 -18 15 C-18 14.34 -18 13.68 -18 13 C-16.68 12.67 -15.36 12.34 -14 12 C-14 11.34 -14 10.68 -14 10 C-13.34 10 -12.68 10 -12 10 C-12 9.34 -12 8.68 -12 8 C-9.8828125 6.30859375 -9.8828125 6.30859375 -7.125 4.4375 C-6.22007813 3.81746094 -5.31515625 3.19742188 -4.3828125 2.55859375 C-2 1 -2 1 0 0 Z " fill="#46A1C6" transform="translate(73,224)"/>
<path d="M0 0 C1.52244691 0.00530932 3.04498797 0.03754311 4.56640625 0.09375 C5.33017578 0.09117188 6.09394531 0.08859375 6.88085938 0.0859375 C11.27080202 0.16235077 13.80097825 0.48605253 17.12890625 3.59375 C17.80953125 3.696875 18.49015625 3.8 19.19140625 3.90625 C21.12890625 4.59375 21.12890625 4.59375 22.87890625 7.65625 C23.29140625 8.625625 23.70390625 9.595 24.12890625 10.59375 C22.04291128 9.59284659 20.0696861 8.55572928 18.12109375 7.3046875 C12.45392535 3.72872515 7.80371531 2.49450301 1.12890625 3.59375 C-2.25618145 5.03374707 -2.25618145 5.03374707 -4.87109375 6.59375 C-5.53109375 6.26375 -6.19109375 5.93375 -6.87109375 5.59375 C-5.22869512 1.42509164 -4.54291538 0.69679429 0 0 Z " fill="#73CF8E" transform="translate(110.87109375,13.40625)"/>
<path d="M0 0 C2.125 0.375 2.125 0.375 4 1 C1.17176735 3.23569799 -1.66349463 5.46231044 -4.5 7.6875 C-5.29148438 8.31333984 -6.08296875 8.93917969 -6.8984375 9.58398438 C-11.76825285 13.39601197 -16.69569484 16.81863349 -22 20 C-21.42655063 17.13275314 -21.1385485 16.1385485 -19 14 C-18.01 14 -17.02 14 -16 14 C-16.020625 13.2575 -16.04125 12.515 -16.0625 11.75 C-14.7516584 8.3572335 -13.85460127 8.14788696 -10.625 6.6875 C-7.78629285 5.51780471 -6.10397028 5 -3 5 C-2.67 4.01 -2.34 3.02 -2 2 C-1.34 1.34 -0.68 0.68 0 0 Z " fill="#4DBB7D" transform="translate(218,217)"/>
<path d="M0 0 C0.33 0 0.66 0 1 0 C1 13.86 1 27.72 1 42 C-0.485 42.495 -0.485 42.495 -2 43 C-2.33 43.66 -2.66 44.32 -3 45 C-2.84402344 44.2471875 -2.68804687 43.494375 -2.52734375 42.71875 C-1.17365988 35.33175988 -0.94901371 28.63829747 -1.63061523 21.20703125 C-2.08582304 16.17164609 -2.08582304 16.17164609 -1 14 C-0.76970044 11.62876754 -0.58880058 9.25258057 -0.4375 6.875 C-0.35371094 5.59367188 -0.26992188 4.31234375 -0.18359375 2.9921875 C-0.09271484 1.51105469 -0.09271484 1.51105469 0 0 Z " fill="#31BC60" transform="translate(260,143)"/>
<path d="M0 0 C3.76474032 0.45251526 5.52354588 1.60576191 8.52734375 3.87890625 C9.40132812 4.52859375 10.2753125 5.17828125 11.17578125 5.84765625 C11.82804687 6.35296875 12.4803125 6.85828125 13.15234375 7.37890625 C11.15234375 8.37890625 11.15234375 8.37890625 8.08984375 7.56640625 C5.15234375 6.37890625 5.15234375 6.37890625 4.15234375 4.37890625 C1.51234375 4.37890625 -1.12765625 4.37890625 -3.84765625 4.37890625 C-4.17765625 7.34890625 -4.50765625 10.31890625 -4.84765625 13.37890625 C-5.50765625 13.37890625 -6.16765625 13.37890625 -6.84765625 13.37890625 C-8.37326579 7.51117726 -8.37326579 7.51117726 -7.01171875 4.578125 C-4.92300313 1.79095352 -3.47804686 0.46278538 0 0 Z " fill="#70B9D3" transform="translate(39.84765625,16.62109375)"/>
<path d="M0 0 C0.33 0 0.66 0 1 0 C1.12682581 7.17143869 1.21436241 14.34258798 1.2746582 21.51489258 C1.29979496 23.95445564 1.33390946 26.39394345 1.37719727 28.83325195 C1.43788229 32.34084646 1.466219 35.8474449 1.48828125 39.35546875 C1.51408768 40.44522507 1.5398941 41.53498138 1.56648254 42.65776062 C1.56960611 51.09977173 1.56960611 51.09977173 -1.53051758 54.2277832 C-2.34544678 54.81261475 -3.16037598 55.39744629 -4 56 C-4.66 55.67 -5.32 55.34 -6 55 C-3.25 49.125 -3.25 49.125 -1 48 C-0.67 32.16 -0.34 16.32 0 0 Z " fill="#4DB269" transform="translate(261,137)"/>
<path d="M0 0 C5.45008121 3.5380855 10.65535585 7.38243235 15.875 11.25 C16.75414062 11.8996875 17.63328125 12.549375 18.5390625 13.21875 C20.69363187 14.8112578 22.84724727 16.40503781 25 18 C23.10546875 18.58203125 23.10546875 18.58203125 21 19 C19.0418364 17.47698387 18.10886989 16.21773977 17 14 C15.67203709 13.64587656 14.33783393 13.31478446 13 13 C12.01 12.34 11.02 11.68 10 11 C10 10.34 10 9.68 10 9 C9.34 9 8.68 9 8 9 C7.67 9.66 7.34 10.32 7 11 C5.82439821 9.73742767 4.65977135 8.46462916 3.5 7.1875 C2.8503125 6.47980469 2.200625 5.77210937 1.53125 5.04296875 C0 3 0 3 0 0 Z " fill="#5AC67F" transform="translate(138,7)"/>
<path d="M0 0 C4.97071587 1.1254451 7.08658016 1.8947266 10 6 C12.59855733 6.8042208 12.59855733 6.8042208 15 7 C15 7.66 15 8.32 15 9 C15.66 9 16.32 9 17 9 C17 9.66 17 10.32 17 11 C17.721875 11 18.44375 11 19.1875 11 C23.5304966 12.54417657 24.89652541 16.07053045 27 20 C22.04844177 17.68824475 17.87470721 14.36479071 13.5 11.125 C12.64535156 10.49980469 11.79070313 9.87460938 10.91015625 9.23046875 C10.08386719 8.62074219 9.25757813 8.01101562 8.40625 7.3828125 C7.65666016 6.82996582 6.90707031 6.27711914 6.13476562 5.70751953 C3.92395828 3.93917706 1.96372889 2.03656255 0 0 Z " fill="#51A9C8" transform="translate(45,106)"/>
<path d="M0 0 C0 0.66 0 1.32 0 2 C-1.48886719 1.566875 -1.48886719 1.566875 -3.0078125 1.125 C-14.40623514 -2.04475831 -25.24304002 -3.23942095 -37 -1 C-26.0316276 -8.31224827 -11.07116886 -5.7872019 0 0 Z " fill="#96DBA6" transform="translate(138,5)"/>
<path d="M0 0 C4.87094334 2.66023707 9.22543504 5.54708941 13.5625 9 C17.60352514 12.1941037 21.67871571 15.19278975 26 18 C22.79937313 19.60031344 20.27728194 18.03173691 17 17 C16.67 15.68 16.34 14.36 16 13 C14.68 13 13.36 13 12 13 C10.95374591 11.70264493 9.95298777 10.36733028 9 9 C8.01 8.67 7.02 8.34 6 8 C6 7.34 6 6.68 6 6 C4.68 5.67 3.36 5.34 2 5 C2 4.01 2 3.02 2 2 C1.34 2 0.68 2 0 2 C0 1.34 0 0.68 0 0 Z " fill="#49A1C3" transform="translate(64,101)"/>
<path d="M0 0 C0.99 0.33 1.98 0.66 3 1 C2.34 2.32 1.68 3.64 1 5 C0.34 5 -0.32 5 -1 5 C0.34929464 8.83663072 2.07751025 11.65172569 4.625 14.8125 C5.25664063 15.60269531 5.88828125 16.39289062 6.5390625 17.20703125 C7.02117187 17.79871094 7.50328125 18.39039062 8 19 C4.47601214 19 3.98495633 18.44884893 1.4375 16.1875 C0.83808594 15.66542969 0.23867187 15.14335938 -0.37890625 14.60546875 C-2.98737974 12.02213718 -3.97962143 10.51965357 -4.125 6.8125 C-4.08375 5.884375 -4.0425 4.95625 -4 4 C-3.34 4 -2.68 4 -2 4 C-1.34 2.68 -0.68 1.36 0 0 Z " fill="#34BA64" transform="translate(81,18)"/>
<path d="M0 0 C-0.95261719 0.67546875 -1.90523437 1.3509375 -2.88671875 2.046875 C-4.1537005 2.9478398 -5.42062452 3.84888577 -6.6875 4.75 C-7.31333984 5.1934375 -7.93917969 5.636875 -8.58398438 6.09375 C-10.39742176 7.38499337 -12.1997647 8.69043657 -14 10 C-14.96679688 10.69480469 -15.93359375 11.38960937 -16.9296875 12.10546875 C-19.38430785 13.93961568 -19.38430785 13.93961568 -19.4375 17.5625 C-19.24449116 21.11557574 -19.24449116 21.11557574 -17 24 C-20.875 22.125 -20.875 22.125 -22 21 C-22.26656572 17.00151425 -22.10249233 14.41430021 -20 11 C-17.38330761 8.6366425 -14.45434736 6.70056963 -11.5625 4.6875 C-10.78583984 4.12482422 -10.00917969 3.56214844 -9.20898438 2.98242188 C-8.0865332 2.19254883 -8.0865332 2.19254883 -6.94140625 1.38671875 C-6.25763916 0.90420654 -5.57387207 0.42169434 -4.86938477 -0.07543945 C-3 -1 -3 -1 0 0 Z " fill="#A5E4C8" transform="translate(95,242)"/>
<path d="M0 0 C4.202207 1.42357375 7.10597801 3.47620353 10.5 6.3125 C11.4178125 7.07175781 12.335625 7.83101563 13.28125 8.61328125 C15.97133935 10.97483957 18.49909258 13.4401944 21 16 C17.89448334 16 16.64738916 15.4606285 14 14 C14 13.34 14 12.68 14 12 C13.42507812 11.72929688 12.85015625 11.45859375 12.2578125 11.1796875 C9.96716817 9.98284565 7.95759674 8.65329343 5.875 7.125 C5.19179688 6.63257812 4.50859375 6.14015625 3.8046875 5.6328125 C1.877924 3.88955029 0.99856772 2.37803241 0 0 Z " fill="#5FAFCB" transform="translate(24,89)"/>
<path d="M0 0 C0.66 0.33 1.32 0.66 2 1 C-2.55526488 7.11706998 -2.55526488 7.11706998 -8 8 C-9.10836423 9.88316159 -9.10836423 9.88316159 -10 12 C-13.07674653 14.96686272 -15.80800929 15.52363742 -20 16 C-16.33249874 12.02365653 -12.08285855 8.94988494 -7.75 5.75 C-7.00492188 5.19570312 -6.25984375 4.64140625 -5.4921875 4.0703125 C-3.66360993 2.71060097 -1.83285182 1.35394127 0 0 Z " fill="#45A4C5" transform="translate(61,165)"/>
<path d="M0 0 C4 0 4 0 5.72070312 1.61743164 C8.30170296 6.42429755 7.51116211 12.10480249 7.5 17.4375 C7.52835938 18.66533203 7.55671875 19.89316406 7.5859375 21.15820312 C7.60511728 29.96651526 7.60511728 29.96651526 5.8515625 32.96142578 C4.46875 34.34765625 4.46875 34.34765625 2 36 C1.34 35.67 0.68 35.34 0 35 C0.639375 34.236875 1.27875 33.47375 1.9375 32.6875 C5.86467065 27.57027763 5.28733173 22.31756762 5.375 16.125 C5.41238281 15.13113281 5.44976562 14.13726562 5.48828125 13.11328125 C5.68027009 7.91142608 5.68027009 7.91142608 3.86035156 3.19042969 C2.37946515 1.63551757 2.37946515 1.63551757 0 0 Z " fill="#A7DEEF" transform="translate(162,124)"/>
<path d="M0 0 C5.06533516 2.79017175 9.7648399 5.84810566 14.4375 9.25 C15.07365234 9.70890625 15.70980469 10.1678125 16.36523438 10.640625 C17.91237077 11.75735503 19.45650773 12.87823863 21 14 C19 15 19 15 16.4375 14.1875 C14 13 14 13 13 11 C10.69034152 9.94647157 8.3570226 8.94280904 6 8 C6 7.34 6 6.68 6 6 C5.38125 5.87625 4.7625 5.7525 4.125 5.625 C2 5 2 5 0 3 C0 2.01 0 1.02 0 0 Z " fill="#72C88E" transform="translate(163,26)"/>
<path d="M0 0 C4.80002295 3.16523252 9.5755035 6.36611534 14.3125 9.625 C15.51326172 10.44871094 15.51326172 10.44871094 16.73828125 11.2890625 C19.04043794 13.03059036 21.00941663 14.9137593 23 17 C20.64828869 16.40138258 18.3140622 15.73075648 16 15 C15.67 14.34 15.34 13.68 15 13 C14.01 12.67 13.02 12.34 12 12 C11.67 11.34 11.34 10.68 11 10 C10.01 10 9.02 10 8 10 C8 9.01 8 8.02 8 7 C6.68 7 5.36 7 4 7 C3.34 6.01 2.68 5.02 2 4 C1.34 4 0.68 4 0 4 C0 2.68 0 1.36 0 0 Z " fill="#62B6CD" transform="translate(113,69)"/>
<path d="M0 0 C0.66 0.33 1.32 0.66 2 1 C-0.97725387 5.00784175 -4.01573333 8.0329929 -8 11 C-8.99 11 -9.98 11 -11 11 C-10.67 13.64 -10.34 16.28 -10 19 C-12 18 -12 18 -12.75 15.75 C-13.05413254 12.40454208 -12.56312864 10.96994442 -11 8 C-8.3984375 5.76171875 -8.3984375 5.76171875 -5.375 3.6875 C-4.37210938 2.99011719 -3.36921875 2.29273438 -2.3359375 1.57421875 C-1.17964844 0.79498047 -1.17964844 0.79498047 0 0 Z " fill="#5FADCD" transform="translate(45,245)"/>
<path d="M0 0 C-1.67401978 3.95677402 -4.13149285 6.84464213 -7 10 C-7.66 10 -8.32 10 -9 10 C-9 11.98 -9 13.96 -9 16 C-9.66 15.67 -10.32 15.34 -11 15 C-11.4333528 11.91236129 -11.6895963 9.98133737 -11 7 C-8.01121732 3.27273023 -4.91896657 0 0 0 Z " fill="#4CA4C9" transform="translate(11,204)"/>
<path d="M0 0 C0.66 0.33 1.32 0.66 2 1 C-1.4285328 3.67836039 -4.86923104 6.34061941 -8.3125 9 C-9.28896484 9.763125 -10.26542969 10.52625 -11.27148438 11.3125 C-12.20927734 12.034375 -13.14707031 12.75625 -14.11328125 13.5 C-15.40939331 14.50546875 -15.40939331 14.50546875 -16.73168945 15.53125 C-19 17 -19 17 -22 17 C-15.11824947 10.42275171 -8.04103391 5.07054888 0 0 Z " fill="#BDE9F7" transform="translate(85,147)"/>
<path d="M0 0 C4.04224085 1.39588173 6.94148485 3.30564036 10.25 6 C11.12140625 6.70125 11.9928125 7.4025 12.890625 8.125 C15 10 15 10 16 12 C9.56035274 10.79256614 5.41533066 7.83532553 1 3 C0.67 2.01 0.34 1.02 0 0 Z " fill="#77CF90" transform="translate(244,86)"/>
<path d="M0 0 C0.8971875 0.309375 0.8971875 0.309375 1.8125 0.625 C1.131875 1.16125 0.45125 1.6975 -0.25 2.25 C-3.12306223 4.57290138 -5.88544378 6.98856826 -8.63671875 9.453125 C-10.1875 10.625 -10.1875 10.625 -12.1875 10.625 C-11.8575 8.975 -11.5275 7.325 -11.1875 5.625 C-9.2075 5.295 -7.2275 4.965 -5.1875 4.625 C-5.1875 3.635 -5.1875 2.645 -5.1875 1.625 C-2.1875 -0.375 -2.1875 -0.375 0 0 Z " fill="#43A3C3" transform="translate(69.1875,177.375)"/>
<path d="M0 0 C6.87014167 3.59121042 12.87384845 8.29221851 19 13 C17 14 17 14 14.625 13.3125 C11.80223959 11.9011198 10.17832733 10.25093824 8 8 C7.01 7.67 6.02 7.34 5 7 C4.34 6.34 3.68 5.68 3 5 C2.34 5 1.68 5 1 5 C0.67 3.35 0.34 1.7 0 0 Z " fill="#54AAC6" transform="translate(53,25)"/>
<path d="M0 0 C0.99 0.33 1.98 0.66 3 1 C-3.66666667 6 -10.33333333 11 -17 16 C-17.66 15.67 -18.32 15.34 -19 15 C-15.0864502 10.54665023 -10.58082594 7.71058228 -5.5234375 4.6484375 C-3.36532862 3.23865121 -1.71743381 1.90185623 0 0 Z " fill="#BAE7F5" transform="translate(128,183)"/>
<path d="M0 0 C-0.70125 0.556875 -1.4025 1.11375 -2.125 1.6875 C-5.11344261 4.09124732 -8.05940238 6.53810432 -11 9 C-11.66 8.67 -12.32 8.34 -13 8 C-12.67 6.68 -12.34 5.36 -12 4 C-10.35 3.67 -8.7 3.34 -7 3 C-6.67 2.01 -6.34 1.02 -6 0 C-3.50907189 -1.24546405 -2.58919267 -0.7767578 0 0 Z " fill="#4CA1C5" transform="translate(58,256)"/>
<path d="M0 0 C0.66 0.33 1.32 0.66 2 1 C1.01 2.485 1.01 2.485 0 4 C-0.99 4 -1.98 4 -3 4 C-3.268125 4.598125 -3.53625 5.19625 -3.8125 5.8125 C-5.03854802 8.07100952 -5.93534581 9.47062652 -8 11 C-10.6875 11.1875 -10.6875 11.1875 -13 11 C-9.0299782 6.78185183 -4.69159716 3.38772897 0 0 Z " fill="#52A8C9" transform="translate(94,209)"/>
<path d="M0 0 C4.12764916 1.81366403 7.62059205 4.49146618 11.25 7.125 C11.8996875 7.59292969 12.549375 8.06085938 13.21875 8.54296875 C14.81435483 9.69274282 16.40743025 10.84602566 18 12 C17.01 12.495 17.01 12.495 16 13 C13.375 12.0625 13.375 12.0625 11 11 C11 10.34 11 9.68 11 9 C10.360625 8.87625 9.72125 8.7525 9.0625 8.625 C8.381875 8.41875 7.70125 8.2125 7 8 C6.67 7.34 6.34 6.68 6 6 C5.01 5.67 4.02 5.34 3 5 C3 4.34 3 3.68 3 3 C2.34 3 1.68 3 1 3 C0.67 2.01 0.34 1.02 0 0 Z " fill="#62AECB" transform="translate(13,64)"/>
<path d="M0 0 C0.66 0.33 1.32 0.66 2 1 C1.01 2.485 1.01 2.485 0 4 C-0.99 4 -1.98 4 -3 4 C-3.33 4.99 -3.66 5.98 -4 7 C-4.66 7 -5.32 7 -6 7 C-6 7.66 -6 8.32 -6 9 C-9 11 -9 11 -11.1875 10.625 C-11.785625 10.41875 -12.38375 10.2125 -13 10 C-11.3970551 8.70681744 -9.79259858 7.41550844 -8.1875 6.125 C-7.29417969 5.40570313 -6.40085938 4.68640625 -5.48046875 3.9453125 C-3 2 -3 2 0 0 Z " fill="#74C394" transform="translate(207,209)"/>
<path d="M0 0 C0.8353125 0.37125 0.8353125 0.37125 1.6875 0.75 C0.6975 2.235 0.6975 2.235 -0.3125 3.75 C-0.9725 3.75 -1.6325 3.75 -2.3125 3.75 C-2.3125 4.41 -2.3125 5.07 -2.3125 5.75 C-7.72426471 9.75 -7.72426471 9.75 -10.3125 9.75 C-10.6425 8.76 -10.9725 7.77 -11.3125 6.75 C-9.9925 6.75 -8.6725 6.75 -7.3125 6.75 C-7.3125 5.76 -7.3125 4.77 -7.3125 3.75 C-3.21493902 -0.34756098 -3.21493902 -0.34756098 0 0 Z " fill="#58B1C8" transform="translate(140.3125,193.25)"/>
<path d="M0 0 C6.42492826 2.82070021 11.13062244 7.05706688 16 12 C13.64828869 11.40138258 11.3140622 10.73075648 9 10 C8.67 9.34 8.34 8.68 8 8 C6.845 7.38125 5.69 6.7625 4.5 6.125 C1.11913288 4.28591891 1.11913288 4.28591891 0.0625 1.75 C0.041875 1.1725 0.02125 0.595 0 0 Z " fill="#6BB7D1" transform="translate(90,120)"/>
<path d="M0 0 C1.32 0.33 2.64 0.66 4 1 C2.37982158 2.33918806 0.75370657 3.6711969 -0.875 5 C-2.23238281 6.11375 -2.23238281 6.11375 -3.6171875 7.25 C-6 9 -6 9 -8 9 C-7.9375 6.6875 -7.9375 6.6875 -7 4 C-3.4375 2.1875 -3.4375 2.1875 0 1 C0 0.67 0 0.34 0 0 Z " fill="#43A9C3" transform="translate(171,169)"/>
<path d="M0 0 C12.84987058 6.85936152 12.84987058 6.85936152 17 10 C17 10.66 17 11.32 17 12 C17.66 12 18.32 12 19 12 C18.67 12.66 18.34 13.32 18 14 C17.00419922 13.27683594 17.00419922 13.27683594 15.98828125 12.5390625 C15.10527344 11.90742187 14.22226562 11.27578125 13.3125 10.625 C12.44238281 9.99851562 11.57226562 9.37203125 10.67578125 8.7265625 C8.1589946 7.10259214 5.78742143 6.05960198 3 5 C1.1875 3.5 1.1875 3.5 0 2 C0 1.34 0 0.68 0 0 Z " fill="#A0D2E7" transform="translate(31,77)"/>
<path d="M0 0 C0.66 0.33 1.32 0.66 2 1 C-3.33894831 5.91706956 -8.86467186 10.12281347 -15 14 C-15.66 13.67 -16.32 13.34 -17 13 C-11.39 8.71 -5.78 4.42 0 0 Z " fill="#BBE2F4" transform="translate(45,196)"/>
<path d="M0 0 C0.66 0.33 1.32 0.66 2 1 C-0.08310086 2.60446931 -2.16647227 4.20858518 -4.25 5.8125 C-5.12978516 6.49022461 -5.12978516 6.49022461 -6.02734375 7.18164062 C-9.00457848 9.4731078 -11.98719555 11.75531153 -15 14 C-15.66 13.67 -16.32 13.34 -17 13 C-13.75042141 9.49302905 -10.18687827 6.90631127 -6.25 4.25 C-5.64800781 3.83878906 -5.04601562 3.42757812 -4.42578125 3.00390625 C-2.95313343 1.99876568 -1.47692498 0.99884522 0 0 Z " fill="#BCE5F6" transform="translate(36,183)"/>
<path d="M0 0 C3.99092412 2.28793238 7.65880191 4.90394143 11.3125 7.6875 C11.86228516 8.10322266 12.41207031 8.51894531 12.97851562 8.94726562 C14.32067925 9.96264158 15.66057622 10.98101253 17 12 C15.12109375 12.609375 15.12109375 12.609375 13 13 C11.0625 11.25 11.0625 11.25 9 9 C8.175 8.505 7.35 8.01 6.5 7.5 C3.88151236 5.92890742 2.00211625 4.29872607 0 2 C0 1.34 0 0.68 0 0 Z " fill="#61B3CA" transform="translate(155,100)"/>
<path d="M0 0 C3.73487777 0.4979837 5.81237635 0.87491756 9 3 C10.1875 6.125 10.1875 6.125 11 9 C7.03935893 7.25731793 3.25563451 4.85325271 0 2 C0 1.34 0 0.68 0 0 Z " fill="#3DA6C2" transform="translate(88,68)"/>
<path d="M0 0 C2.4375 0.375 2.4375 0.375 5 1 C5.33 1.66 5.66 2.32 6 3 C9.63 3 13.26 3 17 3 C15 6 15 6 12.4375 7.0625 C7.28351665 6.96879121 3.90662845 4.21211673 0 1 C0 0.67 0 0.34 0 0 Z " fill="#7DC993" transform="translate(97,44)"/>
<path d="M0 0 C0 0.33 0 0.66 0 1 C-2.64 1.33 -5.28 1.66 -8 2 C-8.33 4.97 -8.66 7.94 -9 11 C-9.66 11 -10.32 11 -11 11 C-12.25 4.375 -12.25 4.375 -10 1 C-6.52674819 -0.1577506 -3.63932552 -0.06866652 0 0 Z " fill="#4DA6C5" transform="translate(44,19)"/>
<path d="M0 0 C0.66 0.33 1.32 0.66 2 1 C-1.20379147 6.66824645 -1.20379147 6.66824645 -5 8.25 C-5.99 8.4975 -6.98 8.745 -8 9 C-9.34721283 9.63815344 -10.68747118 10.29325371 -12 11 C-11.67 10.01 -11.34 9.02 -11 8 C-8.4375 6.8125 -8.4375 6.8125 -6 6 C-6 5.34 -6 4.68 -6 4 C-4.03852126 2.61061923 -2.03833424 1.2739589 0 0 Z " fill="#90DCA9" transform="translate(230,191)"/>
<path d="M0 0 C2.91517292 1.07401108 4.77810176 1.77810176 7 4 C7.99 4.33 8.98 4.66 10 5 C11.6875 8.0625 11.6875 8.0625 13 11 C12.4225 10.690625 11.845 10.38125 11.25 10.0625 C9.07045276 8.92256867 9.07045276 8.92256867 6.8125 8.5625 C6.214375 8.376875 5.61625 8.19125 5 8 C4.67 7.01 4.34 6.02 4 5 C1.99983534 3.79117904 1.99983534 3.79117904 0 3 C0 2.01 0 1.02 0 0 Z " fill="#34B762" transform="translate(153,21)"/>
<path d="M0 0 C0.99 0.33 1.98 0.66 3 1 C1.07158542 2.53376229 -0.86621794 4.0517182 -2.8125 5.5625 C-3.35970703 6.00013672 -3.90691406 6.43777344 -4.47070312 6.88867188 C-5.9221958 8.00588139 -7.45810571 9.01128867 -9 10 C-9.99 9.67 -10.98 9.34 -12 9 C-10.5998884 6.1997768 -8.73427449 5.43223902 -6 4 C-5.01 4 -4.02 4 -3 4 C-2.67 3.01 -2.34 2.02 -2 1 C-1.34 0.67 -0.68 0.34 0 0 Z " fill="#1281AD" transform="translate(38,199)"/>
<path d="M0 0 C8.66666667 2.33333333 8.66666667 2.33333333 11 4 C12.75 7.125 12.75 7.125 14 10 C10.67312232 8.45315734 7.75296022 6.54045021 4.75 4.4375 C3.85796875 3.81746094 2.9659375 3.19742188 2.046875 2.55859375 C1.37140625 2.04425781 0.6959375 1.52992187 0 1 C0 0.67 0 0.34 0 0 Z " fill="#6DC98E" transform="translate(183,59)"/>
<path d="M0 0 C0.99 0.33 1.98 0.66 3 1 C0.6227567 3.62747944 -1.97683181 5.18609908 -5 7 C-5.495 7.53625 -5.99 8.0725 -6.5 8.625 C-8.51536084 10.4724141 -10.33833049 10.64031493 -13 11 C-10.13279564 7.95359537 -7.16064593 5.21956911 -3.875 2.625 C-3.21242188 2.10164062 -2.54984375 1.57828125 -1.8671875 1.0390625 C-1.25101563 0.69617188 -0.63484375 0.35328125 0 0 Z " fill="#0A85B0" transform="translate(75,156)"/>
<path d="M0 0 C-3.33333333 2.66666667 -6.66666667 5.33333333 -10 8 C-10.33 6.68 -10.66 5.36 -11 4 C-7.26280719 0.48264206 -5.13496308 -0.47767098 0 0 Z " fill="#4AA3C5" transform="translate(100,225)"/>
<path d="M0 0 C1.32 0.33 2.64 0.66 4 1 C-1.68881789 6.88498403 -1.68881789 6.88498403 -6.5625 7.3125 C-7.696875 7.209375 -8.83125 7.10625 -10 7 C-10.66 6.01 -11.32 5.02 -12 4 C-9.36 4.66 -6.72 5.32 -4 6 C-4 5.01 -4 4.02 -4 3 C-3.01 3 -2.02 3 -1 3 C-0.67 2.01 -0.34 1.02 0 0 Z " fill="#5EAACA" transform="translate(14,216)"/>
<path d="M0 0 C0.66 0.33 1.32 0.66 2 1 C-3.07042254 7.47887324 -3.07042254 7.47887324 -7 9 C-8.11375 9.556875 -8.11375 9.556875 -9.25 10.125 C-9.8275 10.41375 -10.405 10.7025 -11 11 C-9.52202738 7.32943063 -7.52384523 5.58914217 -4.375 3.25 C-3.55773437 2.63640625 -2.74046875 2.0228125 -1.8984375 1.390625 C-0.95871094 0.70226562 -0.95871094 0.70226562 0 0 Z " fill="#1183B0" transform="translate(35,185)"/>
<path d="M0 0 C0.66 0.33 1.32 0.66 2 1 C-2.95 4.63 -7.9 8.26 -13 12 C-13.33 11.34 -13.66 10.68 -14 10 C-13.34 10 -12.68 10 -12 10 C-12 9.34 -12 8.68 -12 8 C-9.8828125 6.30859375 -9.8828125 6.30859375 -7.125 4.4375 C-6.22007813 3.81746094 -5.31515625 3.19742188 -4.3828125 2.55859375 C-2 1 -2 1 0 0 Z " fill="#C0E7F8" transform="translate(73,224)"/>
<path d="M0 0 C0.99 0.33 1.98 0.66 3 1 C-0.43361902 4.63559661 -3.7973607 7.36113346 -8 10 C-8 8.68 -8 7.36 -8 6 C-7.01 6 -6.02 6 -5 6 C-4.67 5.01 -4.34 4.02 -4 3 C-2.68 3 -1.36 3 0 3 C0 2.01 0 1.02 0 0 Z " fill="#53B0C8" transform="translate(160,177)"/>
<path d="M0 0 C2 3 2 3 1.9375 5.875 C0.78723197 9.70922676 -1.01861079 11.40084018 -4 14 C-4.66 13.67 -5.32 13.34 -6 13 C-5.67 11.68 -5.34 10.36 -5 9 C-4.01 9 -3.02 9 -2 9 C-1.34 6.03 -0.68 3.06 0 0 Z " fill="#69B1CD" transform="translate(112,137)"/>
<path d="M0 0 C-1.98 0.99 -1.98 0.99 -4 2 C-3.67 3.65 -3.34 5.3 -3 7 C-5.475 6.01 -5.475 6.01 -8 5 C-8 3.35 -8 1.7 -8 0 C-4.94736336 -0.98120464 -3.05263664 -0.98120464 0 0 Z " fill="#80DA97" transform="translate(104,21)"/>
<path d="M0 0 C1.98 0 3.96 0 6 0 C2.61831569 3.68006822 -0.42521756 5.9785845 -5 8 C-5.33 7.01 -5.66 6.02 -6 5 C-4.02 4.34 -2.04 3.68 0 3 C0 2.01 0 1.02 0 0 Z " fill="#5DB2D1" transform="translate(76,170)"/>
<path d="M0 0 C3.4588014 0.31443649 5.5109277 0.60602509 8.25 2.8125 C9.85625237 4.82031546 10.99038395 6.64422923 12 9 C8.98472262 7.59422879 6.4052059 5.93873852 3.75 3.9375 C3.04359375 3.41027344 2.3371875 2.88304688 1.609375 2.33984375 C1.07828125 1.89769531 0.5471875 1.45554687 0 1 C0 0.67 0 0.34 0 0 Z " fill="#75CB8E" transform="translate(219,86)"/>
<path d="M0 0 C5.27112904 2.79692561 9.59398317 5.98235547 14 10 C13.34 10.66 12.68 11.32 12 12 C11.67 11.34 11.34 10.68 11 10 C10.01 9.67 9.02 9.34 8 9 C8 8.34 8 7.68 8 7 C6.8553125 6.5978125 6.8553125 6.5978125 5.6875 6.1875 C3.11011382 5.04865495 1.73045136 4.18583329 0 2 C0 1.34 0 0.68 0 0 Z " fill="#83CE97" transform="translate(196,50)"/>
<path d="M0 0 C3.34708051 1.54841575 6.24667512 3.49105864 9.25 5.625 C10.14203125 6.25664063 11.0340625 6.88828125 11.953125 7.5390625 C12.96632813 8.26222656 12.96632813 8.26222656 14 9 C13.01 9.495 13.01 9.495 12 10 C8.32273569 8.43520668 5.79170141 6.79170141 3 4 C2.01 4 1.02 4 0 4 C0 2.68 0 1.36 0 0 Z " fill="#6EBAD2" transform="translate(79,44)"/>
<path d="M0 0 C-2.80804268 2.96404505 -5.18315774 5.44499019 -9 7 C-9 5.68 -9 4.36 -9 3 C-8.34 3 -7.68 3 -7 3 C-7 2.34 -7 1.68 -7 1 C-4.53721199 -0.231394 -2.7204945 -0.07159196 0 0 Z " fill="#65CF91" transform="translate(247,199)"/>
<path d="M0 0 C2.125 0.375 2.125 0.375 4 1 C2.37982158 2.33918806 0.75370657 3.6711969 -0.875 5 C-2.23238281 6.11375 -2.23238281 6.11375 -3.6171875 7.25 C-6 9 -6 9 -8 9 C-8.33 8.01 -8.66 7.02 -9 6 C-7.02 5.67 -5.04 5.34 -3 5 C-2.67 4.01 -2.34 3.02 -2 2 C-1.34 1.34 -0.68 0.68 0 0 Z " fill="#73C490" transform="translate(218,217)"/>
<path d="M0 0 C2.50037734 2.17424117 3.43628586 3.73045798 4 7 C5.65 7.33 7.3 7.66 9 8 C9 8.66 9 9.32 9 10 C5.77060081 10.35882213 4.38790237 10.27258004 1.6875 8.375 C-0.42956587 5.39542581 -0.32523926 3.57763189 0 0 Z " fill="#0B82AE" transform="translate(1,212)"/>
<path d="M0 0 C4.39642348 0.5024484 6.7948982 1.97295941 10 5 C10.33 5.99 10.66 6.98 11 8 C6.40378078 6.5129879 3.53027653 4.20187872 0 1 C0 0.67 0 0.34 0 0 Z " fill="#5FB1CD" transform="translate(79,131)"/>
<path d="M0 0 C-1.32 0.33 -2.64 0.66 -4 1 C-4 1.66 -4 2.32 -4 3 C-5.43429001 3.67354499 -6.87257057 4.33859701 -8.3125 5 C-9.51326172 5.556875 -9.51326172 5.556875 -10.73828125 6.125 C-13 7 -13 7 -16 7 C-14.73299277 6.0158875 -13.4612381 5.03788503 -12.1875 4.0625 C-11.47980469 3.51722656 -10.77210937 2.97195312 -10.04296875 2.41015625 C-6.68210628 0.09032575 -3.97296003 -0.1073773 0 0 Z " fill="#2EBC60" transform="translate(113,2)"/>
<path d="M0 0 C0.66 0.33 1.32 0.66 2 1 C-1.64751781 6.08441876 -3.85169289 7.79444959 -10 9 C-6.83047153 5.73991357 -3.60062011 2.77762123 0 0 Z " fill="#5DB0CD" transform="translate(61,165)"/>
<path d="M0 0 C6.13053511 -0.32712342 10.62669111 -0.39366878 16 3 C16 3.66 16 4.32 16 5 C10.72 3.68 5.44 2.36 0 1 C0 0.67 0 0.34 0 0 Z " fill="#7FD59A" transform="translate(122,2)"/>
<path d="M0 0 C1.32 0.33 2.64 0.66 4 1 C0.7 3.31 -2.6 5.62 -6 8 C-6.33 6.68 -6.66 5.36 -7 4 C-4.35261084 2.5393715 -3.10551666 2 0 2 C0 1.34 0 0.68 0 0 Z " fill="#65C09A" transform="translate(148,269)"/>
<path d="M0 0 C0 3 0 3 -1.390625 4.640625 C-2.00421875 5.17171875 -2.6178125 5.7028125 -3.25 6.25 C-4.15492187 7.06210938 -4.15492187 7.06210938 -5.078125 7.890625 C-7 9 -7 9 -11 8 C-7.37 5.36 -3.74 2.72 0 0 Z " fill="#1783AF" transform="translate(71,227)"/>
<path d="M0 0 C2.625 0.375 2.625 0.375 5 1 C2.51047079 3.66735273 0.36591866 5.55746343 -3 7 C-2.25 2.25 -2.25 2.25 0 0 Z " fill="#42A2C2" transform="translate(107,215)"/>
<path d="M0 0 C5.52628901 1.19194469 8.17819158 2.5991297 12 7 C10.56068883 6.54738642 9.12361001 6.08767021 7.6875 5.625 C6.88699219 5.36976562 6.08648437 5.11453125 5.26171875 4.8515625 C3 4 3 4 0 2 C0 1.34 0 0.68 0 0 Z " fill="#49A2C6" transform="translate(52,94)"/>
<path d="M0 0 C3.10712212 0.78637041 6.09244107 1.63924116 9 3 C10.5625 5.6875 10.5625 5.6875 11 8 C6.40378078 6.5129879 3.53027653 4.20187872 0 1 C0 0.67 0 0.34 0 0 Z " fill="#61B3CA" transform="translate(99,77)"/>
<path d="M0 0 C3.03852705 1.40976705 5.5939595 3.08870228 8.25 5.125 C8.95640625 5.66382812 9.6628125 6.20265625 10.390625 6.7578125 C10.92171875 7.16773437 11.4528125 7.57765625 12 8 C11.01 8.495 11.01 8.495 10 9 C7.43730503 7.95890517 5.97389657 6.97389657 4 5 C3.29875 4.319375 2.5975 3.63875 1.875 2.9375 C0 1 0 1 0 0 Z " fill="#88CE98" transform="translate(221,69)"/>
<path d="M0 0 C1.65 0 3.3 0 5 0 C1.87378374 3.39417765 -0.56541027 5.6062718 -5 7 C-4.67 5.68 -4.34 4.36 -4 3 C-3.01 3 -2.02 3 -1 3 C-0.67 2.01 -0.34 1.02 0 0 Z " fill="#67B0CE" transform="translate(72,242)"/>
<path d="M0 0 C0.99 0.33 1.98 0.66 3 1 C3 1.66 3 2.32 3 3 C0.69 4.32 -1.62 5.64 -4 7 C-3.6875 4.625 -3.6875 4.625 -3 2 C-2.01 1.34 -1.02 0.68 0 0 Z " fill="#429FC5" transform="translate(25,208)"/>
<path d="M0 0 C3.5786304 1.65167557 6.74820188 3.78286492 10 6 C6.79937313 7.60031344 4.27728194 6.03173691 1 5 C0.67 3.35 0.34 1.7 0 0 Z " fill="#5AB0CE" transform="translate(80,113)"/>
<path d="M0 0 C4.56756196 0.8783773 6.52067674 1.385483 9.4375 5.125 C10.2109375 6.548125 10.2109375 6.548125 11 8 C6.99698968 6.23867546 3.3971023 3.73867517 0 1 C0 0.67 0 0.34 0 0 Z " fill="#65B4CE" transform="translate(45,106)"/>
<path d="M0 0 C5.01113235 1.4317521 6.94469549 3.98445693 10 8 C6.02621451 8 4.87350205 6.65246343 2 4 C0.6875 1.75 0.6875 1.75 0 0 Z " fill="#4DA4C2" transform="translate(24,89)"/>
<path d="M0 0 C1.48285242 0.95262034 2.96118201 1.91228405 4.4375 2.875 C5.67306641 3.67550781 5.67306641 3.67550781 6.93359375 4.4921875 C9 6 9 6 10 8 C3.51510574 6.53172205 3.51510574 6.53172205 1.0625 4 C0 2 0 2 0 0 Z " fill="#73C98E" transform="translate(234,78)"/>
<path d="M0 0 C0.66 0.33 1.32 0.66 2 1 C-1.08290155 5.22797927 -1.08290155 5.22797927 -3 7 C-5.8125 7.375 -5.8125 7.375 -8 7 C-5.42215154 4.35247996 -3.08351902 2.05567935 0 0 Z " fill="#62C49D" transform="translate(141,257)"/>
<path d="M0 0 C0.66 0.33 1.32 0.66 2 1 C0.70700306 3.88437779 -0.65941363 5.87219421 -3 8 C-3.66 7.67 -4.32 7.34 -5 7 C-2.25 1.125 -2.25 1.125 0 0 Z " fill="#7FCB91" transform="translate(260,185)"/>
<path d="M0 0 C4.70270446 2.12741392 8.16393369 4.62060825 12 8 C11.01 8.495 11.01 8.495 10 9 C9.34 8.67 8.68 8.34 8 8 C8 7.34 8 6.68 8 6 C7.236875 5.896875 6.47375 5.79375 5.6875 5.6875 C2.81583516 4.95288806 1.76957906 4.3283935 0 2 C0 1.34 0 0.68 0 0 Z " fill="#0A7CA8" transform="translate(36,82)"/>
<path d="M0 0 C4.99275057 1.27721526 7.57611908 3.17330957 11 7 C7.41584854 7 6.58796261 6.21108216 3.8125 4.0625 C3.09707031 3.51722656 2.38164062 2.97195312 1.64453125 2.41015625 C1.10183594 1.94480469 0.55914062 1.47945312 0 1 C0 0.67 0 0.34 0 0 Z " fill="#79CF99" transform="translate(164,45)"/>
<path d="M0 0 C1.62974564 0.76074843 3.25366648 1.53398433 4.875 2.3125 C5.77992187 2.74175781 6.68484375 3.17101562 7.6171875 3.61328125 C10 5 10 5 12 8 C10.35 7.67 8.7 7.34 7 7 C7 6.34 7 5.68 7 5 C5.35 4.67 3.7 4.34 2 4 C2 3.34 2 2.68 2 2 C1.34 2 0.68 2 0 2 C0 1.34 0 0.68 0 0 Z " fill="#7AD197" transform="translate(101,28)"/>
<path d="M0 0 C5.37305699 0.1761658 5.37305699 0.1761658 8 1 C10 4.0625 10 4.0625 11 7 C7.22272911 5.18690997 3.62730178 3.0926741 0 1 C0 0.67 0 0.34 0 0 Z " fill="#81D89E" transform="translate(124,17)"/>
<path d="M0 0 C0.99 0.33 1.98 0.66 3 1 C0.19195732 3.96404505 -2.18315774 6.44499019 -6 8 C-5.42655063 5.13275314 -5.1385485 4.1385485 -3 2 C-2.01 2 -1.02 2 0 2 C0 1.34 0 0.68 0 0 Z " fill="#72C494" transform="translate(202,229)"/>
<path d="M0 0 C1.32 0.33 2.64 0.66 4 1 C1.51047079 3.66735273 -0.63408134 5.55746343 -4 7 C-4.33 6.01 -4.66 5.02 -5 4 C-4.34 3.34 -3.68 2.68 -3 2 C-2.01 2 -1.02 2 0 2 C0 1.34 0 0.68 0 0 Z " fill="#4BA3C5" transform="translate(51,189)"/>
<path d="M0 0 C0.99 0.33 1.98 0.66 3 1 C1.8803014 2.00593243 0.7540588 3.0045849 -0.375 4 C-1.00148438 4.556875 -1.62796875 5.11375 -2.2734375 5.6875 C-4 7 -4 7 -6 7 C-4.61990379 3.66476748 -3.15049348 1.81392049 0 0 Z " fill="#1087B1" transform="translate(91,159)"/>
<path d="M0 0 C0.99 0.33 1.98 0.66 3 1 C-0.3 3.64 -3.6 6.28 -7 9 C-7.66 8.67 -8.32 8.34 -9 8 C-6.03 5.36 -3.06 2.72 0 0 Z " fill="#AEE0F0" transform="translate(72,156)"/>
<path d="M0 0 C3.81684226 1.55500981 6.19195732 4.03595495 9 7 C4.94519369 7 3.15167025 5.45129908 0 3 C0 2.01 0 1.02 0 0 Z " fill="#50A9C8" transform="translate(5,75)"/>
<path d="M0 0 C1.48285242 0.95262034 2.96118201 1.91228405 4.4375 2.875 C5.67306641 3.67550781 5.67306641 3.67550781 6.93359375 4.4921875 C9 6 9 6 10 8 C9.01 8 8.02 8 7 8 C7 7.34 7 6.68 7 6 C6.21625 5.938125 5.4325 5.87625 4.625 5.8125 C3.75875 5.544375 2.8925 5.27625 2 5 C0.8359375 2.44921875 0.8359375 2.44921875 0 0 Z " fill="#83CA93" transform="translate(211,61)"/>
<path d="M0 0 C1.32 0.33 2.64 0.66 4 1 C2.35 2.65 0.7 4.3 -1 6 C-1.99 5.67 -2.98 5.34 -4 5 C-2.68 3.35 -1.36 1.7 0 0 Z " fill="#3BB487" transform="translate(149,251)"/>
<path d="M0 0 C0.66 0.33 1.32 0.66 2 1 C-1.17320782 4.53586014 -3.16743695 6.58578031 -8 7 C-5.4837822 4.39391727 -2.94865641 2.10618315 0 0 Z " fill="#69C191" transform="translate(192,220)"/>
<path d="M0 0 C2.97 0.495 2.97 0.495 6 1 C6.66 2.98 7.32 4.96 8 7 C4.63718422 5.55879324 2.4480582 3.71035015 0 1 C0 0.67 0 0.34 0 0 Z " fill="#44A9C1" transform="translate(144,109)"/>
<path d="M0 0 C4.50802601 1.25805377 7.4912812 2.90407165 11 6 C10.67 6.66 10.34 7.32 10 8 C9.608125 7.54625 9.21625 7.0925 8.8125 6.625 C7.03660632 4.84145767 7.03660632 4.84145767 4.4375 4 C2 3 2 3 0 0 Z " fill="#5AC27E" transform="translate(238,100)"/>
<path d="M0 0 C0.66 0 1.32 0 2 0 C4.21538462 6.4 4.21538462 6.4 3.125 9.4375 C2.75375 9.953125 2.3825 10.46875 2 11 C1.67 11 1.34 11 1 11 C0.67 7.37 0.34 3.74 0 0 Z " fill="#82CB99" transform="translate(113,36)"/>
<path d="M0 0 C0.33 1.32 0.66 2.64 1 4 C-0.0725 4.28875 -1.145 4.5775 -2.25 4.875 C-5.09400364 5.72820109 -7.43508983 6.5636503 -10 8 C-7.32187053 4.23078075 -5.40524374 2.4287277 -1 1 C-0.67 0.67 -0.34 0.34 0 0 Z " fill="#58A9CB" transform="translate(23,194)"/>
<path d="M0 0 C2.97 0.99 5.94 1.98 9 3 C9 3.99 9 4.98 9 6 C4.58763974 6 3.21615077 3.9302707 0 1 C0 0.67 0 0.34 0 0 Z " fill="#5DB2CB" transform="translate(110,85)"/>
<path d="M0 0 C2.31 0.66 4.62 1.32 7 2 C7.33 3.32 7.66 4.64 8 6 C4.63408134 4.55746343 2.48952921 2.66735273 0 0 Z " fill="#7CC991" transform="translate(197,69)"/>
<path d="M0 0 C-2.31 1.65 -4.62 3.3 -7 5 C-7.66 4.67 -8.32 4.34 -9 4 C-8.67 3.01 -8.34 2.02 -8 1 C-2.59770115 -1.29885057 -2.59770115 -1.29885057 0 0 Z " fill="#69CC9F" transform="translate(141,227)"/>
<path d="M0 0 C0.66 0.33 1.32 0.66 2 1 C-1.32307692 5.8 -1.32307692 5.8 -4.75 6.8125 C-5.4925 6.874375 -6.235 6.93625 -7 7 C-4.66666667 4.66666667 -2.33333333 2.33333333 0 0 Z " fill="#78C893" transform="translate(216,202)"/>
<path d="M0 0 C2.31 0.66 4.62 1.32 7 2 C7.33 3.32 7.66 4.64 8 6 C4.63408134 4.55746343 2.48952921 2.66735273 0 0 Z " fill="#76C58A" transform="translate(205,75)"/>
<path d="M0 0 C0.99 0 1.98 0 3 0 C2.67 1.32 2.34 2.64 2 4 C-0.31 4.33 -2.62 4.66 -5 5 C-4.34 4.67 -3.68 4.34 -3 4 C-3 3.34 -3 2.68 -3 2 C-2.01 2 -1.02 2 0 2 C0 1.34 0 0.68 0 0 Z " fill="#2CBF60" transform="translate(102,16)"/>
<path d="M0 0 C0.99 0.33 1.98 0.66 3 1 C1.9024777 3.99324263 1.32317108 4.84610901 -1.625 6.25 C-2.40875 6.4975 -3.1925 6.745 -4 7 C-2.68 4.69 -1.36 2.38 0 0 Z " fill="#379DBC" transform="translate(132,180)"/>
<path d="M0 0 C0.66 0.33 1.32 0.66 2 1 C1.67 1.99 1.34 2.98 1 4 C-2.5625 5.1875 -2.5625 5.1875 -6 6 C-4 4 -2 2 0 0 Z " fill="#69BCD1" transform="translate(160,160)"/>
<path d="M0 0 C3.36591866 1.44253657 5.51047079 3.33264727 8 6 C7.01 6.495 7.01 6.495 6 7 C6 6.34 6 5.68 6 5 C4.68 5 3.36 5 2 5 C1.34 3.35 0.68 1.7 0 0 Z " fill="#5EB1C8" transform="translate(172,113)"/>
<path d="M0 0 C6.875 3.75 6.875 3.75 8 6 C6.35 6 4.7 6 3 6 C2.67 4.68 2.34 3.36 2 2 C1.34 2 0.68 2 0 2 C0 1.34 0 0.68 0 0 Z " fill="#60AECE" transform="translate(64,101)"/>
<path d="M0 0 C1.75 0.125 1.75 0.125 4 1 C6.25 4.0625 6.25 4.0625 8 7 C5.05043472 5.63055898 2.47531189 4.12169591 0 2 C0 1.34 0 0.68 0 0 Z " fill="#7CD096" transform="translate(81,31)"/>
<path d="M0 0 C0.33 0.66 0.66 1.32 1 2 C0.01 2.495 0.01 2.495 -1 3 C-2.13350534 5.01669827 -2.13350534 5.01669827 -3 7 C-4.32 6.34 -5.64 5.68 -7 5 C-4.69 3.35 -2.38 1.7 0 0 Z " fill="#2AC05E" transform="translate(95,10)"/>
<path d="M0 0 C2.6875 -0.3125 2.6875 -0.3125 5 0 C5 0.66 5 1.32 5 2 C2.09451118 4.04169485 0.59857954 5 -3 5 C-1.8125 2.5 -1.8125 2.5 0 0 Z " fill="#7CC4D7" transform="translate(125,203)"/>
<path d="M0 0 C5.66153846 1.47692308 5.66153846 1.47692308 7.375 4.125 C7.684375 5.053125 7.684375 5.053125 8 6 C4.08597051 4.73058503 2.20927127 3.48832306 0 0 Z " fill="#7ED29D" transform="translate(175,53)"/>
<path d="M0 0 C2.31 0.66 4.62 1.32 7 2 C7.33 3.32 7.66 4.64 8 6 C4.63408134 4.55746343 2.48952921 2.66735273 0 0 Z " fill="#7ED79E" transform="translate(89,38)"/>
<path d="M0 0 C6.875 3.75 6.875 3.75 8 6 C5.69 5.67 3.38 5.34 1 5 C0.67 3.35 0.34 1.7 0 0 Z " fill="#65B6D0" transform="translate(53,25)"/>
<path d="M0 0 C4.455 2.97 4.455 2.97 9 6 C7.68 6.33 6.36 6.66 5 7 C2.27023955 5.00517505 1.57179926 3.14359851 0 0 Z " fill="#87CF99" transform="translate(154,19)"/>
<path d="M0 0 C2.62187494 1.04874998 3.79371361 1.64931313 5.25 4.125 C5.4975 4.74375 5.745 5.3625 6 6 C3.5625 5.25 3.5625 5.25 1 4 C0.1875 1.875 0.1875 1.875 0 0 Z " fill="#6DC686" transform="translate(148,15)"/>
<path d="M0 0 C0 0.66 0 1.32 0 2 C-3 4 -3 4 -5.1875 3.625 C-5.785625 3.41875 -6.38375 3.2125 -7 3 C-4.49955934 -0.00052879 -4.2621484 0 0 0 Z " fill="#64BF8D" transform="translate(201,216)"/>
<path d="M0 0 C0.66 0 1.32 0 2 0 C0.95125002 2.62187494 0.35068687 3.79371361 -2.125 5.25 C-2.74375 5.4975 -3.3625 5.745 -4 6 C-4.33 5.34 -4.66 4.68 -5 4 C-4.01 3.67 -3.02 3.34 -2 3 C-1.34 2.01 -0.68 1.02 0 0 Z " fill="#0287B9" transform="translate(96,209)"/>
<path d="M0 0 C1.67542976 0.28604898 3.34385343 0.61781233 5 1 C3.35 2.32 1.7 3.64 0 5 C-0.5625 3.0625 -0.5625 3.0625 -1 1 C-0.67 0.67 -0.34 0.34 0 0 Z " fill="#4CA7C7" transform="translate(117,208)"/>
<path d="M0 0 C2.31 0 4.62 0 7 0 C4.53721199 2.46278801 2.29323018 2.99771255 -1 4 C-0.67 2.68 -0.34 1.36 0 0 Z " fill="#0D83B0" transform="translate(4,63)"/>
<path d="M0 0 C0.598125 0.20625 1.19625 0.4125 1.8125 0.625 C0.5625 2.125 0.5625 2.125 -1.1875 3.625 C-2.5075 3.625 -3.8275 3.625 -5.1875 3.625 C-5.1875 2.965 -5.1875 2.305 -5.1875 1.625 C-2.1875 -0.375 -2.1875 -0.375 0 0 Z " fill="#64C580" transform="translate(87.1875,14.375)"/>
</svg>
